<mxfile host="Electron" agent="Mozilla/5.0 (Windows NT 10.0; Win64; x64) AppleWebKit/537.36 (KHTML, like Gecko) draw.io/26.2.2 Chrome/134.0.6998.178 Electron/35.1.2 Safari/537.36" version="26.2.2">
  <diagram name="Page-1" id="c9db0220-8083-56f3-ca83-edcdcd058819">
    <mxGraphModel dx="3640" dy="2707" grid="1" gridSize="10" guides="1" tooltips="1" connect="1" arrows="1" fold="1" page="1" pageScale="1.5" pageWidth="826" pageHeight="1169" background="none" math="0" shadow="0">
      <root>
        <mxCell id="0" style=";html=1;" />
        <mxCell id="1" style=";html=1;" parent="0" />
        <mxCell id="Hls7dQNNYy174Wgs6hoQ-1" value="" style="shape=image;verticalLabelPosition=bottom;labelBackgroundColor=default;verticalAlign=top;aspect=fixed;imageAspect=0;image=data:image/png,iVBORw0KGgoAAAANSUhEUgAAA5AAAAHlCAYAAACDPBN/AAAAAXNSR0IArs4c6QAAAARnQU1BAACxjwv8YQUAAAAJcEhZcwAAFxEAABcRAcom8z8AAKJHSURBVHhe7N0HfBN3gjb+XHn/7+3t3d7uvbe7t7upm97rbrLJpncghEACBBJCJ3Rc6N10G2Pj3hs2tsE22Lhggwvghnu3ccO9yZJlS5bk+vx/I8lgwEm0CYRAnu99nst6NBqNZkYjPcxodMejd9yBZ37xCzz77/+OZ6X/MgzDMAzDMAzDMMxIRFeUOqPUHe945t/+DRWFBehoa0VzfR3DMAzDMAzDMAzDXEp7awsuFBXqi+QdUqPsEAMkfX06hmEYhmEYhmEYhrmUYfF/srZWPPfLXxoKpNQqpRtUPd0MwzAMwzAMwzAMcyk6nRYtDfUskAzDMAzDMAzDMMy35zsLZE+3kmEYhmEYhmEYhvmZ5jsLpE4UyLHu2K3sYhiGYRiGYRiGYW7zjNUHxyyQTXUX9QOlEUZPQNmlYBiGYRiGYRiGYX4mGd0HR0qkVqu5tkBqRYEcKY2jy2OXQs4wDMMwDMMwDMPc5hldIkf+O1IgpbNWryiQGm2vfqRetRqDg4MYGhpiGIZhGIZhGIZhfm4RfVDqhSMl8poC2XixFr29an3rHBwY0P8mJBEREREREf08Sb3QcFRSDo2m98oC2VBbA7VaBYW8E8PDQ8a7EBERERER0c+R1AulfihFOtgonbV6RYFUqXog75RheIgFkoiIiIiI6OdM6oVSP5RyTYGsr6lGT083ZLIO/TmvRERERERE9PMl9UKpH3aKSGerXlMgu7uV6OhoZ4EkIiIiIiL6mZN6odQPZSJSgZSum3OpQNZVV+kLpHQjCyQREREREdHPm/4IpLFASl93vKZAKpVd6GhngSQiIiIiIvq50x+BFP2wo72NBZKIiIiIiIi+GQskERERERERmYQFkoiIiIiIiEzCAklEREREREQmYYEkIiIiIiIik7BAEhERERERkUlYIImIiIiIiMgkLJBERERERERkEhZIIiIiIiIiMgkLJBEREREREZmEBZKIiIiIiIhMwgJJREREREREJmGBJCIiIiIiIpOwQBIREREREZFJWCCJiIiIiIjIJCyQREREREREZBIWSCIiIiIiIjIJCyQR0U9WEw7ZRmHylnPIaNcZh9HtaxDNhblYvTIEFqGVaDUOvfmG0N1QAVfro3h/cThWeJehQRrc34OSU6cwxywQE3afgWdGI84EHsHHO5MQXq+/IxER3YZYIImIvpdhDJZlYO7mMIzzKkNb7+h9ZAciHaMwbdURbE9TQTnqpp6cc1i0ORTLItsg+85OWA2blT544ItonGzSGIf9XOlQlnAOyy2C8K5Yrh9ZHMXHliLivx+ZH8EHSw5hcXA1itXG0X8EmtYahHifwOeWRzBuVSg+WBmMWZ75SG03jvAPG0RDWgo+m+SESe4laDIOvRGGuluQdDwBX286gokrQ8X8H8Esu1REVnYbx7hM19oAn91eeGq2Hz7dfhqB0RfQAg2q0xMx8XMPvLw8BOsj8nDsTCUiDrjg8a+j4F9tvPMN0w9ZXT7WrzyMCVtOwj7/5/76ICL68bBAEhF9T0Od2Vgy2x0PzIpDcueoNthZAPNF7rjnA0f81aUMjZfK5QAyvYPx18nuME+WX1Esx1YL+9UBeGpeHE4136IfkHubERUSi1WHS1GsGDYO/D4GcOFMGrZYiZK2MwKfi2L99CRHPL0wENOtIjBnUxA2RdWgSmsc/QbrrijGvi1eeHymF942C8H83RGYv84Pk/cnI6S6zzjWP25A04vmJgWalH3iGf8DhlQoPZMCC9ezCK/6tscfhryqDNYbffH8DFc8M9sXn206KpanF174zBVPLYnAhhMXoTKOLY0vK8vDki/c8MH+HFT26DCgG8BQXyfO+PnjwTkR2H9eDVV/P7SaPvTIu1DbpkJ3v/HuN0q/CiUnwvHIuIP43cdeGGdX8hM6YktEdHtjgSQi+r6G5AjbfQgvTQuCY1kvRj62KzPiMX6uF5770h1PrU1GTufILc3w2nwIL3wZiWNNGvHR/LvcBgWypRCWq13w2NZMpLX/sPeRfq0WXV0qdCrVKD2ZiM9mOmGadykKxN+dYniXZgCDxnFvLDmSg8LxzCR/LAurQlOnCvJuNeTybjTL1ejS3YT3S00rjrv64p6Fx+FQ8M3bynBHC4L2e+G+aQGYF1CBqmYl2hQqdMi6UJWThw0WLrjz60jYZyuM99ChJicFEyf64ku/ysultqsNYTZueGJVHA41Gof9iLQddXDc4I+/r4zC2p2eeEnMx/FO441ERHRDsUASEX1vQ6iJiMDrX3pg1rF2KPTtZQBp3kfwqvTB1soHr84LhXdlr+GDd2cuViz1wTNWWajoNlSd4Z56hPlF4wvLIxhvEYYFTueR2T5y+GbsAqmuKYS9/XF8Yn4EEyyOYrpTLvJHjoD2y5ETl4Jlm49ignT7muNY4V+Miq6RaaqQcSQBs1edREheMQ4Fx+Fzs2CM35SAoDI1ersaEO4dhWlmIRi3MRY+uV0YfVZoX2M5PJyOYYpZKD6wjIBZUCkudI99rKwpPQOr13nh8WnuePTLALy9NBgzfUThkxtuV9aWwtPpOKaK+RxnfhQzdop5EDeachZqZ9o5zJjpiFmHa41HngZQdjoVC78+ij0pzejSD5MocO7YKXxqcRpHay4iJyEFn686jaCMMpxLSMRci2C8szIcq4LLUdEzutJrUHc+C1usxDJcGYrxG07gwNmR6bYj3v8onng/EJtPf8dxr55mnAyNxRerDae5jt+eCP/iHlHAGhHgEIo5DilwOZKGRatCYBFWjOS8Emw1C8O6sBro+1B7A4IcQzDDPQ+xBeJ/u4Zj/IoQfLw5Fo7nmsVcinVSfxEe+/zwV7EdPvS5D15eGIRJe8/icMXV50hrUXv+LCZPcMV7Nlko0179Txh9qEpNwaRJrpjoUIS2wR7knojBq/N98NSnnnhhdgDe33ESZgEZcN8WhJe/dMcTM33wt0WhWOhagNw2JZL9wzBl31kcG1Uq+2Vim/KMxLQ1hmUw1SYFwVXG7XGgG0WnT2Pxeum2I5i6OxGB+XLxyvo2OjTlJGLcrCB8FVSM0lPH8KL43wtj24y3C4O9qEtJwCfbT8JabA9FcacxV1oH5mFY4pWHIrEK9HS9KIg4gek74+GZ14lEsa5mWIZiwuoIWIaUopZfPSYiugYLJBHRD9BfcQafLfDE0/sK0aSR9pP1OLBGfNA+UIC86Ch8tMAL86PlkPqiNisB4+e5Y2p4O+RS5+qqgPWuYPxdfABf55sMj4AoTF7gize2pSFXLh21rMNBfYE8idMthgJZk5iC+WaeeGKOH+ban4ajzwl8YZWE5IZecWs7wt2P4/0Z7nh7cxT2BiVi8yZ//HWmF963z0eJQnpQFeJFIXlpvAteEcVtfUASNlsdwgtTXfHMhkjMX3cE6xwTsNs2GK/MdMZDS04jstZwQqOuNBfrNnrjb2uOYduhVLiIAvTOfC9M9C5DWfe1x1O7aisQ7XcUH8x1x2PLIrDOIxmBaY1oEd2hMzsTlhbueGpOEL52ToKd1zFMXuiOJ+ccg2t2h74YfZuWs2fxuSiQXwRWiyUuEW9m6WLYDBu8YlOIPKV+ICCrwO6NznjYIg0pPTKcPRSO58e5428rDsP8YDwOBpzE/BVeePhjd8wNqkSZvjD0IDs+EVPn+mLSTlHUwlKwcWsgXp4VCqvTTaLgDkCZl4Xli51x/5xgLA8sRHHntSVaVXMBB3f54skvPPHBlmjY+sdj+c4T2J/YjmFZNWzXO+I3H7phik0qjha2okIUsJJzZ/HZ+06Y7FxsKMaNlbDb4IR7p/ng420xWOOZCFunMEyY6YR7FkXC5pwMg1o5cqJOYJG5Nx74SpSqA6fhfbIEWa1XHY8d6sS5sCN4ZFoIVieOKlujDLVeFNvcQfxlXTISOgbQWZGNTdah+Ntkb7y9Jgr7Y/Jw9Hw1zoiitXCFGx6fG4jZDucQfPYiGto6cHS3E+5fdBxu+u9AivvXFGKbmS9e+tILH++Kx17fOFjaRWJ/lthetUqcCQrDG4v98fnBZHgGJmDlag88bxGNg4WXT6K9Rm8X4t188OyiY3Cp6YOqXjrF1hNvW51HjXEUDPSgIjIU909xxevmEZizNw77A+KxUmxzD3zqi2l2+YbtRqdCuqcfHprihnfXHcdC+1Ow94/BvEVuuP+LQMzwr0TXDznzmojoNsQCSUT0Q+gqsdvMD8/Mi8fZTi2GmzPxxdd+WHqyE8q2Algs88GrDqX670GWhoThtZkBOFCm1p/uWno0Am/OCoZ1Zju6dP0Y6utF1uEjeOlzL2zJ6EIvGuC01lAgE1u1gLoSW9Z6454vI+B8vhUdKh36tL1o61BB1Sd25llJmDrHEW/vL0B6Uy80fTqo5G04bHsYz3/qj10ZClHMNEhxP4rXP3HCVN8LKOrSoLurAX57DuO5ifZ4x7YQGc0aqHvaECYK4rPjvbEtVSbmtxORdofxwoo4BBR3Qd0/gMHeZgRaB+GpzyPgU6K85pTc4aFBDF3MwXILUTS2ZeJckxaDg+K9RFcPd+sA3PXFUVifaYZMrYNOo0bTuRR8PtcRf9mXgyzZt7/nXFsgBd1FeNj44c/zYhFYajjE1JqWiplfeWBheIN4DiqkHDqOv73pgk+cc5DWrkavTgt5baFYrq744/IEhDaI0tVSjk3m7vhgXxbSFFr0D/WLRZ+PtSsd8fz280iTiQn369BelouNolA/9qkXXl4cilWHilE+0nsGO3DyUBgemuiNL/1KUCvvhU48lkLeA1mPKJtNlbDf7IzfisK8J1VuPPV2GA0Z5zBTlNkZHqXQV7ymarhsc8VvZx3B6hN1aOrWQterQsGpM5g0xQkfH8xHrbTku+sQ6uiLuxdFwSG3GwMDYv1cvUI0rYj28MPdCyNxIE/6B4cxdIp1utsZT5rHI7BO/D2sQln6aYyb4IsZXqVQiukOiHU4KB0Z3eOGJ1dEw7OyXz9sWCG2GWt3/TBf6TKtKhmiXHzwyMxALI5oQFOXFhqdBl1d3ejo1aKlNAOz5/phktgOW9Ri++/X4GJeKmZM98R4+yLD87/GIJQNxbAQ6/TNTakol55jTweCt7vgma/F66LCuN0MqlAVHY77p3rhrZ3pyG5VQy2t67o62G9ywdMLwuEvXaVIp0aWbyAemuGLD10KUSUTrxCtBi2VZdi41A3PL4lD4hj/OEJE9HPGAklE9IPokOkVjNe+DIRdkQoVcSfw3pxQuNf2YmBYhsPbA/GSKCYpsovw230Yf1l+WhRNqT62wGt9AJ6f4oW3LcPx6doITF57DB8v9sLjU1wwN7oTncONcFkXgKelAtkmSlZJMj6e54IPXGvROPK1yks0SHI/gr9N9sOevC7DKbNGXSkJ+PhLR0w90io+lGuR6nEUf58YgP0FXTCcSKjGGY9wvDbBExtEOxo5hbQqKhbjprph1SkZtG2lsFwjyuu0AP3pfZ+uDceUdUfx/jxP/PmDQNicbxdTHkNzAVatFgXSKhtZxu+oDVZkYuESB7xkU3rlVVN11XCy8sGfliQgrOobCo7RmAVSPOvKk6cw/lMPmMU0iTXTg2Tvo3hxbhS8iqXpKZHgF4HnxwXCKmX0qadynPI7iic+CRXFqhV159PxpZj24/OD8cn6CExZI56v5WG8Mt0Bj61NwtGakaU7CFWnDAVp6bBc7YWHPnLHdK9C5EqHT+VVsN3qjIdWJeNY/Rjvnw0XsH+dA54UJSj6UlMaRN0YBdJhkyMeXZOCiBb9SAYt1dhvaY+/bjiDk9J5tf2tOOYiCuTXJ+Ba/A3nXeracNInEH+aE45t6SPfcbxKeyM8t4kSv/Y0ovTrS4uanGRMEAXyS78Ll77ni652HLUWBXJlHPz1v+khXCqQMQhoFrPUXIWdXzvh5fXJODtyBvWIoW7kR0Xg4U888eKSI5i2Ttr+I/CJeSCe/cgDb69LRYlx1CsMqVGdFIlnpwdgRrDUcCW9qIgOwyOf++OzwFrDIFEgL0QdxUOzArEoevRlcbWoDA/G43OCsOqc2Pi0amR6B+Apsa43Z4161QyK14RYni/MC8aBElGOjYOJiIgFkojoB9NkxuOdBV74IqwcfnsP4/XVSUiVS5+Yh1ASEoY3vwrCgeRzWLrSHx86lKFeI30crcY+8ffTXx2D/alyJOXV4PT5apzOrUNqYT3KZAOiDl3EwTWGApkkCmRPWgLGz3bGzLBOdFxzxmQPoh1C8dKkILhUKK8okNqMRHw6zxGfHG5B86UCeRiOJXJjIegR5TMMf/9IlODCTlG8DKpjYjFhhhtWSgWyrgCLzd3x8JpEeCZVIzW3BqfO1yA5vw5n85pwUakb+wI2jflYaSkK5PYsZHYYPob3F6ZjziJ7vOdWg4rR56oOXoTnngD8adFJhF74llMYhbELpFjibSXYttoVb9qVo6qqCvabPfHWgULk6dttp75APvdxCKzTRh/f6kCs1xE8PjUMzsXiuZxJwaSJbvjMPh1RpXVIFuvlVFYtUnIv4nxVJ9p7r64TA+juvIhDDofx9ORg7MiQY7ijCrtFwXt+23kkG7/zeQVRIG1EgXxuazpOSkc09cYukAc3OuK5TecQe2k8YLihCjYWdvjblrNIlLqxthnhzoYC6VL0DZeiHe5GXnw0XvzID3ODqkTtutoQZGW5WPq5Cz7cfR5l+rd9DSqzkjBeFMgvfCsun1osb0XoPqlAxsL3onHYpQIZi0Oi7KovFsJypgve356BcuMol/QpkBV8GHd/GYQ5/iU4k2Pc/rPFcs6vR26lHNf+oIhY0op2HNnjgQemeuK5r0NEuQ/H5DVH8dFSH9z/sQdeFQU/XdqoRdGsFAXy0TmHYZY4qiz3q1EUGoQn5x7GxgzxGtVJBdIfzy0MhXWRcRyJRo1kZy/8RQx3usACSUQ0GgskEdEP1VUAy6W+eH79Ucye64Mp7hVoMH7S7itOxuSFXpi0OhgvzfLDGunnO/SfRrtw3CYIL04Pgn3JNx1tG7mIjuEU1sG6DHz+tShxW86jQP99xtGGUB52DO+ID/9zI5tx+QzQYRQejcRbn3nAIlkmqqIGZ92kAhmEg0VyY1nsQeJIgSy4XCCromMx/nNRIOM70Ku7iAObffHQ3FhE1n370cEriAK5QjqFVToCOVKAWguxZo077jM/g/iGUUfLmgqw3tJZPL9MJLV8+3vONxVIDHfqy+DLq+Jg5XQCs8yCsSWp1XikVRTIgGP4y5teWBVVe/lCO/ILsN3mjv9dmoDQ+n70l2Rh0Vf2eNs+H8XXFHWhrw25JbXIaryipqMkLhavve+D5VFNouk0wdfaC7/9KhL2OZcv6XOJsUA+uyUNsR3GYd9QIJ02O+OuZXFwLx0phoNozsnAV5Od8LFdLiql7am3GWFOPrjr245Aim1EXV2OHcsP4v5FkXDIvKrZyusRdMAPD3wRijVinRuW2fcpkNH600OH2uvhvMYBT6+IwSHjgcHL1LhwJhavTPbF534XjI/1XfrRUXUeC6e64umvAjBzVzhmbxOvue1hmLvtCD6Z74rH54Vgc7bYPqUjldHhuG+GPyb5V12a/rCqA0Hb3URhDIeHdORUFMjzPofw2FeHsGBUQ+9X1GL/cg+8tDgWJ3kKKxHRFVggiYh+qGEFwvcewvOfO+Oxz3yw8WwXLn3m1JZj20pfPDXRBQ9+cRxhDb3iY7xkGMrzp/HpHHc88/Ux7DhRjLSiGqQkn8PW8Ao06q/SehF2lv54Ym4cTreI8jDYhQi7IDw/zQNvbT2NgOQKZKRlwdY/D3ntOgwoi7DVwhtPfxmMpYdykFRQjujD8fhsnhseW5+Csy068agqnHYRBUuURftRBfK0KJUvTzgE29EF8kQMxk13xYqTrVCKj+ClYZF4b4Yz/rImDm7x5cgtr0RM2Gm4JreibvSRxNEUJdi60Rv3TD+CrccyEZLdhGbxvpIZGok3p7vgtY0J8EqpQHrGeey0CsCjU/yx/mQjlGMezrxMKpDTZzhg5qGrCqRYuvKsdCxc5Y4HJzvj5W3nEFU/MjGpQEbi9fcc8fiycOw4XoS0zFwc2H8YT090w1SfElRLTUNXBx87fzzyiQ8+tT+HsKxqlOYVwCMoA+F5CvEQLTjmH4F3FkfA3OssvE6kwtr1BKbOccNTy2LgUSQtjAFcOJ2EKZ874tElx7A9rBCZuUXwDU5HaI50hLIGtmsP4unNaYi5qkDOEPPyufvlAum6wx2/n+SFd6wS4ZdWgZTYM1i63A0PzgnH9hSZoRwNtCEu4DD+/LE/vnA6g+DsSqRXj1H0B/pQmZIkyrcTHp4bgjk2p2EXlgo791jMW+WPpz/3xiSXAtToj5JLpAKZiHHjfTDT58oCGbJXFDZRDn1GFcijolQ+vvwEvKVhgyoUxEfh9UlueNkyBntiypBxPh+HwtIQXK6GrqUG1hYueGDWYXztlYXkomqkp2aJZZSByCtXqoG2G1khQXhoqj+m+JSjWdGD9pF0tiPjxDE8M8UbH9qVQTGsRk3ccTz0qRueWBiCjeFFSM3Kh8v+I/jLDC+8bpuLZmmz0Klw3j8Ij37mjmeXH8fukyVIS83B3p2H8MIMH0z2rcYVF+clIiIWSCKiH24Itcci8Mo0J9w5/TiONWmNJVHSi9gDgXhukgPu2ZiBcuWoYy39alwQH+bnLnXHk19445X5fnhrsR9mBpWjSf8Bvha25n549KsYxDcZPrrr5C2I9AnHh1+64fmvfMR9fPD+7gzkd0jn7fWjs7oY+60O4ZUvPPGyuO1vX3rjY2tRoi6q0K+fqW7EO4XixXGHcKDwcoE8JUrlix8GwCb/coGsjIrGe585Y2lMC6RjM0MqOVKORWPKPFc8+4UP/r7QH68tPoStCc1oH+tInWRIg6KYeEyZ5YwHp7riE49iFCmlaSlwJjwG00W5feErX/xtrgdeWXoUVjF1aNV+R3sUmlNS8Nk0e0wPqMLIN+Eu6auDt10A7nnVHfNDqwxFQU86hfUYXvrkMJa5xWGPfQjeEcvx4ene+MqtACVdfcb1NoDu1lp4OQTjlRkueH62H95c4I03NsYhsFC6vOsAqlLPYtFiZzw+zQ1PzhCl6XNXvLv1FAKLujCyioc0ahQnpeDrpW54dron/jbPCy+Zn4BHngroqIb1ajs8sTEVl7+iN4iL6WcwbbwLproafxhf+g7kFhc8ax6JTX5nYb7WB3+Z5oIXvj6C3UnNkOlG2s2A/gf/14nifP8kJ7y+/RSCKkZta6P161Cfl4vdVr547lNXPDpdPIdPnfHCkjBsialF4+htVFTGC+dP4733vTHdu3xUgWxB8G5nPLI0Gt4jRxcVrTiyxwWPLImCh/4qrMMY0MqReSIBM+a74Wlpm5njifGbYhBQLZb00CA6KgrFfEjPyQN/E9v/3xeI0r4vEfHX/DrKMLqbL2DrPFHIFx2H+8VrtxFtSwXWzXfEU0uicaxWjaqYCDw55xBmOIuCvDcY787zFAXZC5845iCzw7iVa1XI8AnE8/MOYYlPJraK185bX7njKVEeFwSUoOy7/iWDiOhniAWSiOg6GOxRoqK2A4W13VBddflLdacc5TXtKGzToP/qS2MOatDWIkNBRSuyy1qRVylDnbJP1AGJDm0NnSiuVaLb0P70BtU9qK9rR155K7Iq2lHe1gvdpekOQi3vQkVlm356udL0RDG6bBDd7XKUVXaiTTMgPpYbh3Uo9MNae0eGic/WXUpcqO5AvSgUI/1wWKdGc0M78qXHlua3Ro429cCownytYVGkGuvbkSPGL2vVoHfkM3lfL1rEcP20yttQ2igtO+Nt36G/pwfVNW2o6dRdvrDLJc0IcTqMR2ZFwbuo+9LzufwdyFDsP1OPznYZ8krFMqoSy+LSTI0Yhk6lRGV1m36+pfkrbuqGss/wTIf6NGhv6UCxWM654rb8qg7UyLWXltMlQzrImjtQJNbveTGdgnol5FLpEyWutbENJU0qKC/daRh94o24plJMq0NsK9Ig43cgn998FpF1GjTUSNMRy6qpB6qrH2ywD/LWDv3yLKxTYuSnQccmbScKVFSL7ahCzH9lOypaetBzzfIfglbdjQtiO6qRjfqHkYF+0SHF8xfPRzbyOGKYQjx+cX3X5WESsY03N4jXhnEbl9bz5Y46BFVnJ8qN22u22J4vtKmh/0WcqwzoelErxitrEK+HMW4fHuyHrEGsp4tim+w2XETn0bmHsSqhHUoxX9LrJa+6E03dowqyKJDpXtJ3IEOwN0+HjsZ25ErrqVaOdjXLIxHRWFggiYjo9tJYjE3mTnjFOg/nrzj/0FggJwZjz7nRV+b8CTMWyGc2nEX0qIvo0HcYMhTIR2YHYcWpsa5iZGQskM8uCMHuAuMwIiL6ViyQRER0W5A3NON80hns3nkITy4Ig026/KqfFhEF0jccz350GLvPXnOO5E+TKJD2Gxzw9PqziBx94Vj6dgOiQEYewUNfBWJ5gvH3Y8YiFUhPPzwzPxi78kf/YwMREX0TFkgiIrotNKelY/liW9z3RTA2xDZA3nd1IZDhpPdRPP5BIHakjP5RxZ+wxirYrrXDo6tTcOwW6bw/CaJAVhwLwX0zA7D48u+kXEsUyFR3Hzw2OwhWuSyQRESmYIEkIqLbQn93NyoqmpBVLV3IZqwyMABlhxyFFbIrvwf3U9anRWtDKwrru6G4RWb5J2F4EFpFJ/KrZbh4+Uum1xoaRE97BwprOtGkNg4jIqJvxQJJREREREREJmGBJCIiIiIiIpOwQBIREREREZFJWCCJiIiIiIjIJCyQREREREREZBIWSCIiIiIiIjIJCyQRERERERGZhAWSiIiIiIiITMICSURERERERCa5KQVyeHgYdRdrUFlRjqrKCoZhGIZhGIZhGOY6R+pbUu+S+tf1ctOOQPb0dEPZpdBPn2EYhmEYhmEYhrnOEX1L6l3X000rkERERERERHRrYYEkIiIiIiIik7BAEhERERERkUlYIImIiIiIiMgkLJBERERERERkEhZIIiIiIiIiMgkLJBEREREREZmEBZKIiIiIiIhMwgJJREREREREJmGBJCIiIiIiIpOwQBIREREREZFJWCCJiIiIiIjIJCyQREREREREZJKbWiCHh4eN/4uIiIiIiIh+6m5agSysbIfTkRystE0QOYXqBiV61AOQK3UMwzAMwzAMwzDMD4hCpEfdj77+69vjbkqBVKp0mL39BJ6e4YU/jXPAPR85I7OoFTJFHxpb1QzDMAzDMAzDMMwPSJNIc7sGsi4trueJnzelQKo1ffj7ggBRHJ3wyGfueOpzL+SUtqOzq088yV6GYRiGYRiGYRjmB6axrRetMs2tXyAHBgfx7rLDuP8TFxZIhmEYhmEYhmGYG5AmUSDbOm+DAtk/wALJMAzDMAzDMAxzI8MCyTAMwzAMwzAMw5gUFkiGYRiGYRiGYRjGpLBAMgzDMAzDMAzDMCaFBZJhGIZhGIZhGIYxKSyQDMMwDMMwDMMwjElhgWQYhmEYhmEYhmFMCgskwzAMwzAMwzA/rYiS0izTokU1jNY+MNc7WqBF0T/2sv+OsEAyDMMwDMMwDPOTSou8D001Hah0O4ri2WtRPGsNir8S/2V+WKTlOGs1ytbuR11qMZo7NGJ5Sxl7PYwVFkiGYRiGYRiGYX5SadUMo+boaWTf9yrS77hH5G7jf5kfFmk53oWMXz6K4rnrDctbpr1m+X9bWCAZhmEYhmEYhvlJpbUfuGDrL8rOncj8ryeR+eunmOuYjP/zAHKfGW9Y3p26a5b/t4UFkmEYhmEYhmGYn1QuF8i7xixAzA9Lxv/3IHKfnWBY3iyQLJAMwzAMwzAMcytHXyAPBIgCefeYBYj5YdEXyOc+MixvFkgWSIZhGIZhGIa5lcMCeWPDAimwQDIMwzAMwzDM7REWyBsbFkiBBZJhGIZhGIZhbo+wQN7YsEAKLJAMwzAMwzAMc3uEBfLGhgVSuNUKZFNnP7rVw1D39KGtQ/w9xji3UpratJB1D0GtGYJcrkWz2LDGGs+UNLVp0NY1gB7tMJRdOrS0qcccj2EYhmEYhrk988ML5NPI/M3jyPjFvUi9436k/0L6e4zxfiOG/8ejSBOPk3op9yLt/z521fjG6f37faPGk/JnpP3bVdP+zRPI+OUDV40n5uHfxXjGx8z4j8f0j5n2rw9fvu/o4f/nQWT854NXTWN07hHjPHL5Mf/BsEAK17tAtiuHoNIA3V1atI6+TWYofhpRlDrFgrtclDToEAVKpRmGQhSoltH3uSIatMi06CjJwx6HCKwMLkdenRoyaVpjjn8rRCqPrYgPS8BKqwQcPt+KVqUofmOO+10Ry1HZjdykNGzdehwOCbWo7hYle4xxpaLZoRyEWjuELsUPK60MwzAMwzDMTyc/vEA+gvT/7z0UfeCJNi8rVL77oCiRV40jClv6P9+DzD+PQ43jCXSeOA3FiXh0BnuhesLbOCvKYYZUMKX86gFR7P6KnCf3oy0kDnIxrvz4SXR67MCFt36Pc//0qGG83zyCtH96CtkPrUVzcOyl8WSOVqh4+g9I/edHkPFvDyPnqUlocA5Fw7JFomw+rv+ty4xfiOGPf4QGpyDULbRA7pNb0BIh7h+VAHl4JNp9w9BxWEwz6hTkx46haeVXomQ+8b1+J5MFUrheBbKlQxQ8kbTIBKzbFwb7FBkqW0WBkRlua68pgp1LFL7emYToik40KXSiYGrQKutB2vHTWL8rEj5Z7agVK0I6snjtY4jpd/ZBcTYCr0xYjV+bJeHUBTWUUgG6ZtxbJX1QaqvgvNEG//W0DSyOV6Gtt//K4m1ytFD0ypHg6YsnH1uHj51yUKqTNqhrx5N1d+BsXDIstp+E99lGtIh1/f1KK8MwDMMwDPNTyg8vkPeLwjcDlavVoimkoW2VdLRv1O3S0T5RHnMe/BDNSQXoq62AfOM+1G0MhOxEPfoaM9D41Xzk3/EoMv7jQaT+8e/InRUOZUY3+isSUb/RGnXOkZDXd6G/wAlVkyci7ZcPifL4siiPzpCfaUZfdbIYzwb1jhGQXehEf6o7aj77GOfEcyp4dyl0Ys40sc5I/7+ifIoSmP4v96HgrYXQSMNjfJF17wLUWh1EwxZvtB2qkyoPBiuS0WDliMYdNqj+7BNRbEV5/K9Rz8vEsEAK1+0IpCiJrTINsj2d8OfXzXH3jhycr9Pojyq2ynS4GB+Mlz5Ygzue3o5lJxpwoXMAsk4t2mUV2L14F/77JRvsSGlEg7L/WwukPO0EPpi+BfduOIukSrXhCNo1494q6UOXpgaeOxxxz6uO2Bhdgzb19y+QcrUCif5BeOWl7ZjhkY8y7eAYBbIP3bo6BNo64reP78LsgFK09A58z8dkGIZhGIZhfkr54QVSOmI4DRdWNGNoIAEti6VTPkfd/u8PIfW+D1Eeeh5oKofsjfeRdcdvceaOPyPz95vRGiEKRls0Gl7/HVL/6QXkiM+4CrnoHBdiUfLsX3BWjJsiymXe0sPoE6MOJjij4J9/h6yHZ6Dt5AD6qxJR+teX9OOdFeNlfuWGjgFg4KQ7iu/4E/LeXAi1YhCqI7ZI/zdjgfzXPyP/tblQyQegPmYn5vcepN7xezFPTyDnhRBoervQ7bxUFNA/6k9j5SmsP9D1O4XVUCDb82Iw6TMr/OarCMSUyyFXSkche3DKwQ1PT9yI376+BW87liC7QQeFKH+dFYn4bMYO/M/8E4gpU0DRpUNrZz+U6mH0agCNZhg90qmY0hHObymQLeI+XSrpPsaoBtAh5kd/emaHTv89Q+k0Wek2wzSlomo4/VX6HmJnz5C4bRCdigEopP+tFY/dOwi5WMktsj4opGnrhxm+qzj6iN2l243zq+rpF8XYlFNrryyQG2LqIF4PYhoiWsPzbh/1Pc8msYzbxPx1915+HmrxPA2n8V5dIAtQKTYTrX5aEBuUWB7SeG3SUc96BDu6488v2mJJcDla1CyQDMMwDMMwt0NubIGUjj7eiZyJluiUPhf77kWOKHXpxlNQU+94HIUf+UF8yobcdiJSfjURFftrReEoRZvZW6IQPmg4gvlvD+D8na+i7OtdqJ0+E7l3/AXFk8IxgEZ07n7PMJ703Unpe5O/fB9Fuxox3JGG1tf/H3JfWwjVtxXICHuk/0Ia/ogY/ncUvB0hPg8r0eO95tIpr9c+Z9PDAilcz+9ASgWyta0EO762xn3vOMEusxWN3aK4dFRgz3IbPL3kIF6bsAuPLo9DXEU3usRtNbGh+PvkzfirXRGy63VQqgbRWlkCL89IfL3tCObtjoZtdBWqpZKn7EfnGAWyvXsQHTVlCAiIwbId4Zi3PQIrvbKRUtmFtq5BKDtbcS7uDDbti8D87WFYYB2D/bEXUCFWYqdClDRFE6KCEmBum46E7HwEBsZgybZwLHZNRdwFNRRNNTjsE4nF28Kw2D4ZJ4o60dLVL0qkGq1i+p311TgSeELc5whm74jEjqOlKGpUQ971XUdHLxfIu19zw56YXKScTobl9iOYuzMKe2OqUdKqQ1dnLxqlcZU9qMzJhYPTcSwU8zJv53Gs989BWlU3FGJZjhTIl1/aibn+55GYm4MdO49ittUxbA3KQ2atCgqxDBW97Yj28sfT7xzAktALaGWBZBiGYRiGuS1yYwukdKGav6D0yyAMDCohs16Os//ykPG2p5H+L3ci/8Ol6O4Cev32Ieehz3GhQA3kHEHdPXci/VdPihJ3v/4o4Lk7/hdn7vhPpNzxa5z59TSU28gw1J2M1jlivF8YS95vHhbP4y0Uv5siSmkD5HveQe7L8/VFkQXS4JYvkM1SgezsQvR+Bzz1zhbMPtqM8g5R4Irj8PG0nRjvno5tFg54fIIL7LPa0KLW4rSjK559dxdWxTaiSgk0553H5vXWeHTaPry71BUfzdyOh6Y74uuwKlH4xMaSGX1FgVSqBlCRloFtm/bjzvc34tEZDpi0eD8en+UHt/RW9CgbEep9GG99tAkPfmaLccsd8OKEjbhnsi3mHS5HcVM/NJpS7F66F//vxR14bZkr5m9ywqsT1uGXr27Da6LIrbHywZcrHPDGlC349Ssb8dRW6fuX3VB2D6GltAT2u+3x5LTdeG2xGz6ZvROPTLHBNK8CZDdqodAfHRxjWekzUiCd8fDbNnh3lSsWrHXFZ4tt8NAb6/A/4w/CIlyUyPZBdPd0IiP+FBZ9tQP3frQDryx1xIfTt+Kud3fg1Z3JiCnrgaZfKQrkYbzxhhVe/Nods7Z5YOoyOzw3bh3++60dmOqSjdS6fvRqu5Fy6DBenuYE86iLYtr8DiTDMAzDMMztkBtbIB8St01A6dxcDA43QbZ9DlKlq6Ea75v+L/ci752VkIvPrgNBtih/4gtcuKjGcEwQau+4F6n/3yvIf2U3WsNPovPoCcj8QtC61QJlkyejLK4Tw82n0Tz5AaT/+0jJEyXwn19F0fjj6OvvQZftKlEg50KtGEBPiA1SWSBvgwKpP41Vh+rYw3jxk814ZHcesuv7cTHCDy98YodNKa04E+SPv364HQuimkRhbICL2X7c+7EP/PM7oFC34NBWO9w7wxvb42pQ39aNpopMmM/bgTu/DEVgoVj5uXGiOBkLZJUGmvZK7Ftrjf9+bTc+tktGVG4DSksqEZlQhqzaHhTFh+O9cevx6JLjcEquQ3FlA9KSTmL2jK343ThfOKR1oGuwEnar7XH/C5vx8tZTOFLQgOxzcZg7awd+89J6PGMeBa/URuTlJGOZmJdfvOaCXacaoRxUIPqgGx77VBTckDLUtKnQ2VCEPRZ78aePvWCd0gyZKGfffHTPWCB3iWX/wiY8ZxYGx9O1KKyoR0roUbz70Wr815IoBJQNoL86C2uXbMZvP3LH0sOlyBLPozgvD7vX2+OPr+3Cl96lqO/vxZmAYLz95mrcN+sQNkRUILuiAZni+c6ZvRm/mugDq9Md0A2pxHhB+NtMN6yLa4RWzOPY88cwDMMwDMPcSrmxBfJxcdszKPnCEwMDKsj2r7rqCOSfkD9+GVRKQO29B+cfmI4LWSqgKBz1j/0eaf/6N+Q9Z4G6PU5odIuEvFmUkZ5ENH3xIUrWtWFIfQZtC41HIKUL3PzmYfF476D4vTT0oxadu/6G7L/OgaKlH7oYdxT+30eQoS+Q9yL/1S+g6hyE+rgDC+StVSCl7wNq0FGbinmz9uD3c8JxorIeYXsc8PBXwQgv6YIsLwbjpm7Hi/sLUVB0BvNn7cRDq8/gbLUGvdL3IT/fif+e5Iovtx/Dqj2RWLrvMD78ZAt++dx+bD/bjLaCeIzXF8hzSKnRoet8JD78dBPuXp6IhNo+aDSDkCkGoFQNibTAc6Mohm/ZYP2pFrRqAGXXAFR9asQ7eeHpv23F3NBq1Ohq4LD6AO56+SB2iNLX1gcM9FfBQZSzu57fg5XRdajTSsuqDaH7RGF8YR/MxLCOjjyYL9mDX71vj8mbwmG+NxLL9ofiky924D8e34GvQ8tQrR1E+xjLyRBjgdzphHtfsMaKYzVoFi96ZbfYGHouwGnbAfzqXTfsOFOPwqhjePutdXjDLge54kWp6RbPUYxblxiPaRMs8MzGs0gU5T0j8DBe/dt6jHfIg3TGgLp7GH39MsR6++KRv+3BLN8SNKEXqVKBnOGKtbEN0LBAMgzDMAzD3Bb5Mb4DmTXeHG2iF+oCD6Dgjj8iTf8dyIeQesfzKPr4OAZwEZ173kDKv09A+dZyYLgWHZs+gf7nPfS/8/hfSP71myj0b8VwRwIa3nkEhe97iZIog3z/Z2K8B/SPlSn9FuV/f4hiVzFeQwqan/4fZL84B50tAxiI90WlND1jqS14aR961VqognezQN5yBVK6Gqu8Hf6b7fDYOEfYJZ/C0kXWeHZjKtJqNVC152Pdwn24b14kjh4KwFvTdmGyTzWK24bQfSYCr07bhj9+6YP5u47B3DoCy/ceh+XBGGxwOIvYCgXas2KNRyBFgazVoSEqBK9NXIs3naqQ0zQMRafhx/NbOrTo7C7B3mXSqa3ecM1qgUwlfW+xF+1dQHZgIF57fwOm+lSiXFUDR1Eg73zPEwfPNYvxhtClqoD9Gjvc9aYrbFIa0a4ehLxHhkh7Tzzz0h6sOCEKZPlZzJy7Db/+1A1fWB2DpfUxMb/HYGEfg7V2yTiS1YyLShOOQErfgXzDBdtPihdbrzSPfVCqq+Gzy0k8vjN2ppThVGAwXviLFeYEFqOyX5RSsQG2dA1DlnEGC2dZ4n7zJJxo1OF8UBBefnEHZvsUokqs2/Y2LeQ6BRICDuPFl3ZihkeheElrcNbLB49PtMOKqDpoVSyQDMMwDMMwt0OuW4Fc2SIKZDSavpS+p3iXKH1SpB/ivxfn/vAaSp1iMaxsRtf0aci547/FOA8h6wFbdKaLvlgdgYtP/R6p//w0sv66E+31oui0ZaDy3ddFOfwfkSeR/bwr5I2ijGgy0Tr1f5Dxp0/R6NeLwfYcVI2TLrjz/3D2X59B9qpwKMVofcftRFm9CxlPzUTd+T6gIxfNE6UL7vwGKb94HQU2dRgeaoZiy3tI/6X0G4+PskDeKgXS8HMefSgK8sYLH23H1M3ueP4Ta3zpL5XEAciVchzb54SnPnLAp8v34dHJTtid0oL6blHQik5i6nQr3LngBJLqNWLehtHTMwiVFuhV90Gm6ENn6shFdAwFUnEuEm9O2YS7LM/gXH0fdL2DkHUZjkB2q5vhtekgHnzdGmsSWtCiAbr1RyC7EevoiSf/boWvw2tQ11cDB0tRIN9xx4EzTWg3Fkg7USDvfMcN+5NFgVRJBbIDxw544OmX9mJl1EW0tWfDfNEO/PdnwQgsUmJQbAw9PQPoka58Kopgp0yUWVk/lL1ieLdOjK++dEVVQ0YdgXx+H8wiq9EyIOZRBQw05GKruRX+7bNAOGd3oiIyAm+/tQZvHMhGjijAI0cga5Pi8ek4S7ywNRVnlDqkH5KOQG7ER075KBSPq+4RG5b6IgJtHfDfr9ljeWglFLo+VBVcQEhcCZIqutD5rd/TZBiGYRiGYW6V/PACafwdSLMO0RR6oCsIR0dgNGShUo6hZcUK/VHH8394BRcPnYK2tR0q/6No909BT3YrtIWRqHrvU+T+02PI+M+Hkfa7vyLr3QNoD6tFf0cxOg6FocM/DT05/RioTkXtgkUoffohpP3rX8Q0t6E1uAb98lIxjhgvOhM9DWKaYRtR/ua7SPvFI0j/bzG9aQ5oq9QBygoxnpi/+AzxuV+GXv8lKH38AWT+SnoeokD+y6sofP8kxMdr9IZsYoG8Xq57gTT+nEdbXiwmT7PC/e9tx/+Oc8H+tFbUK6WfkuhDTWQQXp60Hf/v7c347cJwHC+RQ97dJ55bHdzX2+BPb+7E+3sTEXG+FgVllUg4kYKAc20oax1Ed8aoq7BWa6Btr8D2VXvw67d3Y9zeU4jIqEbO+QL4HM3GmUo5yk4exdvjNuL+uSHYG1OOrKJKxB07himfbsRds47AN68LPf2VOGDxDQXybTfYXFMg92DF8Wo0DipwbL8rHn5tM/6yIQaHUqtRUFGD5Lgz8D99EbnNojBXlMLVIxJ7TtSgsKUfHbLRy2rkO5CuePTZdXjo60DsjKlAWnYxAuxFwX19HZ7ZlgTRfaGqSIfF15vxuw+dMdcrG4lFVcg8m461K63x+/dtsfxINWSDaqT4B+Pdt1bjf6d5YdmhQpzJr0BMYCjen7Aef5ofAc98FbQ9Cpw/mw0bj3M4cr4FTQodL6LDMAzDMAxzG+SHF0hR/H7xBvJfXIe6TQ5o3OuDZntvNNtJcUf9rLko+MWjovDdi4w/vo4KS2c02fugRXx2bdplhbJXXoH+VFX9aa0iv5K+x/gYzt+zELW73MS0pOl5oGnfXlR8MF6Mew/S//0ZMe4jSPuXx3H+zvmXx7MV41kuQ/H9f0TqPz9imN4vRdn81bPI+mAjGna6Xh7PYgVKHr4baf935Hk8IQrjC8h5+GvUrN2Fqo8ninn5YeVRCgukcP0LpNhwpQLZXgKreTvw66dX4l++CkdUuUL/m5CtMi3kF05jyuSN+OfHVuHRffnIqNOhSy79zqMOVVmZ2LJ2L/739fV46NP9eGP+fvxt2k4sDKpGYRugTovAKxMs8Wsz6UqoanSrtShLTcdm8z36+zzwqQ1e+2IXHltwGIHZMqg7mxEuStXbk0SBmrALL82yxhMfbsQT8/2w81QTatoHoOotxe7Fu/Effz2IPUnS6arDUKrLsHf5HvzHX+yx83SDGDYEhaodR/c44t5Ht2D+0QrUiBdoc3ER7HcewL1vrcM9H+/DGwsO4KWp2/G5cy7SxPw2nAzD6++uwTinPOQrhiC7qkAqtVVw3nQAv39mO15abI/PVtjh1U+34n/Ec3l0fhj8sjrQ1N0PhaIT2UmJ+HruTvzx3S148ksbvDhpM+77xBYzvPNwvl4DXV8X4j198cJza/HQLHtMWeuA92fuxF1vrsOfPvXArrgGVCvEMlTVI9DGFr94bBOmehehRTPIn/FgGIZhGIa5DfLDC6RU/B4XJfJe/Wmr565K6r8+dLkc/lIUyStuvwdp/9+j4rarpvkbqcxJP98xelxR9qQruErT+ZbxUkUZTf/3UeNI8/dfYv5Egb08LcN4aVeMJ03vSWT8h+FnQ9L+VRTQ0bd9z7BACjeiQDZ3SBfTUSDjZDrsvRKxO74W5U1qww/7609xbUR0WCqs3RIReF6O6rY+tIn7SEcvO5Q61BQXIzA4EducE7DR6TR2BZ1HQokcDbI+dFwoh3dwMmxia1HcoEa7KKSyHi2qi0oRFJyE7S7iPq6JOBBTiaI6Fdq7htDV2oJzSemw8RC3OSZgm+85hGS3i5XeB3mnFm3yViSeSMc+n2wklsvRqhCPo2hDUrQY5p2F02XSMB3a5UrkJGfDwe0cjuW3o14Mk3X3oaGyEuFhSdghPbbTKVj5pyMytx1NKg2Svf3x/OeuooQ2QaG++ucytOjo6sC5hExYe+fgVE45EuLOwsohHlt80xCR34FGufQ7mmo0dfSjW9mNstwiuPslYrN4HhvdkuESX4myll4oxPpqlXejOLMAru6pOJp+ASnpWbB1Pon1ninwPVePKlFYpefb3ilHdmoO7HzSEJ7dimYegWQYhmEYhrkt8sMLJPNtYYEUbkiB1EcqdkPo1QKann59Qbz8/b8+dKmHodEBPV1a/dGvy7dp0KYYRE+vuJ90X+0wenuHIJeOUErfIezs19/W22MonYb7aURRHET3yH00w1CLx2yXGVZUsyie8h4xHem7icbbu0VRbTXev6lNi07VkLhtyPB9wDbxONIwMf9XDhOP0z0EtW4YXQotWqRh4v6touQp1cZpi0jz29U1gO6eKtiv3oOnlsYgqFQHteLa7xpKjyMT0+wVj6MQ99HPp3EelV1iHkePKxVO5SBELzU+1jBUPaJgSsVcPy2x7MRyUInh3d3S903FvIrxtOLvnm6xPC49X6moD4rHMTyPZmkZjXochmEYhmEY5tYMC+SNDQukcOMK5M88HaLsyZoRF3kWPifrUdgyoC+0Y47LMAzDMAzDMNchLJA3NiyQAgvkjUtTuw5ylXQl2T60S6ehjjEOwzAMwzAMw1yvsEDe2LBACiyQDMMwDMMwDHN7hAXyxoYFUmCBZBiGYRiGYZjbIyyQNzYskAILJMMwDMMwDMPcHtEXSFt/USDvGrMAMT8s+gL57ATD8maBZIFkGIZhGIZhmFs5l49AigL5Xz/8h/OZK5Pxfx7gEUgWSIZhGIZhGIa5PdLaO4TaE+eQ88T7+hLJXM/cqS/lpat26X/bvtn4U3qmhgWSYRiGYRiGYZifVjp1aKpXoCYsEeVbHFG+2YG5Xtl0EJUHA9GQX2MokGMt/28JCyTDMAzDMAzDMD+tiJLSLNOiRQ20DjDXPTqgpat/7GX/HWGBZBiGYRiGYRiGYUwKCyTDMAzDMAzDMAxjUlggGYZhGIZhGIZhGJPCAskwDMMwDMMwDMOYFBZIhmEYhmEYhmEYxqSwQDIMwzAMwzAMwzAmhQWSYRiGYRiGYRiGMSm3TYGUpvXO0iAWSIZhGIZhGIZhmBuU26ZAtnWqDUcgJ7ngYRZIhmEYhmEYhmGY657bqkBudT+LJ6d74nfv2eHO8Y7ILGpFh6IPja1qhmEYhmEYhmEY5gdGKpHKnj5cx/54cwqkpK5FiUOxxbAOyIBt0Hk0tqnQqxlEt6qfYRiGYRiGYRiG+YFRafoxMHB9e9xNK5BERERERER0a2GBJCIiIiIiIpOwQBIREREREZFJWCCJiIiIiIjIJCyQREREREREZBIWSCIiIiIiIjIJCyQRERERERGZhAWSiIiIiIiITMICSURERERERCZhgSQiIiIiIiKTsEASERERERGRSVggiYiIiIiIyCQskERERERERGQSFkgiIiIiIiIyCQskERERERERmYQFkoiIiIiIiExyUwvk8PAwwzAMwzAMwzAMc4Nyvd2UAnn1k5KmzTAMwzAMwzAMw1yfXN25rhdp2j9agRz9BAYHBy9lYGCAYRiGYRiGYRiGuU4Z3bdG97Af6kcrkKNnWpqW9ERG/sswDMMwDMMwDMNc34zuXaP72A8hTeuGF8jRMytNR2rEP2R6RERERERE9N1G96/Rvez7kqbzoxVIaRpSA+7v7/9BM01ERERERETfTepdUv+6+kjk9/WjFciR8ii1376+PhZIIiIiIiKiG0zqXVL/Gvle5EiJ/L5ueIGUZm50gZTar06nY4EkIiIiIiK6waTeJfWv63UU8kctkCNHHzUazfeeYSIiIiIiIjKN1Luk/jVyFPKWKZAjp69K7be3t/d7zzARERERERGZRupdUv+SetjIaawjHe37+FEKpHTf0aev8ggkERERERHRjSf1Lql/jXUa6/fxoxdIrVbLI5BEREREREQ/Aql3Sf1L6mEskERERERERPSNWCCJiIiIiIjIJCyQREREREREZBIWSCIiIiIiIjIJCyQRERERERGZhAWSiIiIiIiITMICSURERERERCZhgSQiIiIiIiKTsEASERERERGRSVggiYiIiIiIyCQskERERERERGQSFkgiIiIiIiIyCQskERERERERmYQFkoiIiIiIiEzCAklEREREREQmYYEkIiIiIiIik7BAEhERXWEIPe0y5OQ2oUKmFX8B6g4ZcqW/O7QYMIx0a9L1oq6qHmmVcrTrjMOIiIj+ASyQRER0ixuCsrUD2aLgVSl0GDQOHaGVy1FQWI/iVg20xmHfTofcsBN47U03LItsEH8NoyTiBF5/0xWLj19El3Gs728IvZ0y5Bc1ICWnHknZ9UguaUe9st94+w3UXIFdq/bgT0vjEdZkHEZERPQPYIEkIqJbnAbpARF46S0PrE1qhso4dETD6dP4aLIdpgfVoME47NvpUHA8Du+P84Z5TKO+QJZFxeGDcV5YFV0PpXGs72VIi9aKYuzdEYCXpjrhielueHKaI+6dHYq9SS3ikW4wRTMiD0VhlV8x8n54EyYiop8hFkgiIrrFaXA+OApvjvPFljMtUBuHjmhMTsZnnzvhq9CLaDQO+3aGAvnBeG9YjCqQH473gtkPLJCauiJsX+2OR2aFYJnnOXjF5iEkLh22gecRndepP12WiIjop4wFkoiIbnGGAvnW+G8ukFNnOGH2VQVyoFuB4uJ6JGbVIaW4DY29Iye/mlogh6BTysU0GpCcXYfk/CYUNvZA+y1vR7WJZzBl4kFMD6yGzDhsbP3oam5Bek4dTuU0IKtWCdXIly8HNGiua0ZmdScuNnUiP7sKZyrluNjWg/KiehQ0qEYdhR2CukuOvNwmlLRqMTSoQ1NNI87XdEHWZxxF0qdCzYUmnM0VyyOnHjl1SnRd+rJnP+QNLUgT83JazEtOXTdUfMslIvrZYoEkIqJb3MgRSD/szLy2linSzuDzmaOPQA6iq/Ui/OyPYPwCL7y20BvPzfLFXK9iFOu/h9iHwu8skH2QNVbAyeYw3vzSA68s8MWLn7viZbPjcMxqR9c3fJ1RVpiNJXPs8MKGMwipUIwqaaP0a9GQm4G1m33wylxfvDrbAy8vD8fulBbIpOl218Jtryf+8OUhfLUnFkvWhGLx4RKcSCmC+SwbPL01DUndhklhSIGzR8Pw+Af+WBknQ5/iIuxWH8BDFsmIaJVGGIRa0YLoQ9GYMtsFz87xxSuzXPDR7hTEdoqb+zWoSUvD2nU+eHW+n35eXlt1DPYZMiiu/rIpERH9LLBAEhHRLU4qkCfw7kQvzD9UiNMFjUgdleMBMfhgqgvmHbmIZmn03np47AvCa0sjYXumGrWtDUgOjsa7073EOHXoEu8n5dJ3Hr+hQErdbFB+AXbbvfHI1CAsPZyHs2W1SIpOxNxFznhkURz8itXXXMxHT9eGhOMxeGemM56aFQjzkGKcremC4lLhHEBXQRaWrvTE6/vSEFPehtbyYtjt9MXjX0fBsaRPdNcG+B/0x3++64KJDtnI6zXeVd2IoIM+uHt2FJzyDMcghzsvws3KFQ+tTsJxqVu3V8N+gyOeXn8WJ6SCqGnFcfdDeHySFybanENoZg1yM3JwJK4EGd0DkBdkYPEST0ywz8KpqjZcLCmEzTZP/GVJNDwv8DKuREQ/RyyQRER0i5MKZDQ+muaI+6e64cmZ7nj6czc8JfL0DHc8Od0Nf57giWXhF9EmxlZmnMHnX7niI4ccROY34ExeA87FJ2PmXFs8sikbmep+1Mad/IYC2QCtqIYX407j4ylO+DK4BvoDeXo6lMQm4P0PXLEgtEr/WGNToyotHRu2BuP1zx3xwKzDWB3bgHaNeB8bbkeUTyiemHEEqyMu4KyYtzP5NQjwiMALb7ljTkideL9rxiFbb/zqq+M4mKUwTlPSi+JTp/DuJG98HVIDqZPK83Mw70sXfOpeYjj62lyNgxsd8cyGczjZI+akKAeLZ9rh1b0ZyLj66kN9olx6HsIjs8Ox/kSdcV4q4O8Zgkc/9MHs0Fp+Z5OI6GeIBZKIiG5xhiOQ709yw6f2iXCPy0bAiSz4iQTEZMPO7ihem+KGBUfrIBNlsDAsFuM/dcVfl4Tgk/VhmLz6KD5ZE45PVx/BXJ8SFKl6URUb/w0FskkUMxWSfMLx3Ech2Jt2ZU1U5GZh4Wx7THYvw4Xvelsa7kFpciosVnmJkhaMbWfk6FPXw3W/H34/1Q/vmoXhs7Vi3sT8TVkXho/NomF9uhWDA03ws/HCPSsScLjyynNl++rLscPcCa/vzccFbS+yw0XxFEVzX7bxkqtNIwUyDYm9Q6g+cxLvjPPD4iM11/6+ZWstPHa5477P/fGeRQQ+XSPNSximiP9+tCkONgmNt/ZvYhIR0ffCAklERLe4yxfR2Z7arj/yNlrb2RRM119Epw4dEKVJKoMT3bE4stZwIZuhAQzo35NE9G8lfd9yER2pQGqRGRiJlyf4YWNiq+EuRh3n0zFjqgOm+5aj7pq3pUHxxqiBpu/K97++0jws/9IG7ziUoK6rFUEHfHDX/Bh4FfWIW4fF+92AmDNpYob/j+46eIsCeffyeAReGH0lHKGvDdHegXhq+WkEpJTCb68n/r4rE1kjp7mOKpCnewdRe+YU3v/QE7ODKq+5+BA66+C10wUPLD+JgErphNxBw4cEaTlJGbrmCRIR0c8ACyQREd3iLhdI6SqsI11pRNOoq7C2iL/7yzOxZJE9nttwFuEXuqHU9GFQo0Jjs3h/6pHq57ddRKdBP/2OzFTMnumAV3dkIq6xG93ivairvQGHHYPxlylB2JHSJubqar3IO5sD35ACZNZ2okHWjeaWTmTHJmPyF/b4yKUMTeJeuRFRePEjT8zwLkaVrBe6AR3UCgUa2lSG70p2X4TXNxVIDKAxPRWzFh3GlM3hmGsRgMXieUtVVO9SgTyHWCWgrS3GxkUH8dTKePiUytEuCm5vl3islm50ahRIPRqGh6f44atDF1Db2Ys+MS89ciUa23rQ/f3exomI6BbHAklERLe4XqQHhOPFN9yxJrF51E9YGNSfOoUJkw5gWmANGvRDWhEdEo23pzrj2SXBWOmSCHu3Y5i5JRaBOXJx+wAKjp7Aq2+4Ymlkvb5AloSfwGtvuGDx8YvQnwyqbUbU4Ui8MtUFr6w6gnUeCbDc6IeXv/DATN9SFI75Y5EDaDh3DrNFWXx0lg8+2XgE01d648UZrnjGIh6+OdJVbaRSVwWHXd54dKoH3lsXhd0Bidi0OwjL3HOQLE1XVQOXnS74zfwY+JZfXSDF+2R7NRys3PHHN+zw3MYE+NeMOibbUAkbC1s8YJ6E8HZpgBzZJ+Px/kxXPDXbH3MPxmP7vsNYbJeKePFYvfXlsF3vhSemeeDtjVHYcygBa62OwNw1C7la/RSJiOhnhgWSiIhucTqUnU7FitWx8CroxNW9piMvD1u2h2NXYis6jMPQr0B6whms3BaBqWsjMG1TJJYFFCCvXSpkA6g+lwmL1dFwSu9AvyiQdamZsFx9Ag7p4s3NMAXxsHJknU6BmVUEPlsTgenbTmBHTA3qrz4EOlp3K5KiTmHp9uOYvv4Ypm8Rj+txHkl1l44R6vW21CDE5wRmb4jAp+uOYZpVHA6mNBguzNPbihOHT2CK3XnEN1x9wq6kCzmJKfhyWQQ2Hq1E7ei3x44mHPUIwxz3AqRKXVkypEZlZjo27T2OaeJ5TNl0AlYnqnBRP+khqJuq4OsSjRkbj+HT9RH43CoebskNo34Pk4iIfk5YIImIiIiIiMgkLJBERERERERkEhZIIiIiIiIiMgkLJBEREREREZmEBZKIiIiIiIhMwgJJREREREREJmGBJCIiIiIiIpOwQBIREREREZFJWCCJiIiIiIjIJCyQREREREREZBIWSCIiIiIiIjIJCyQRERERERGZhAWSiIiIiIiITMIC+Q00ml6oVSqo1QzDMAzDMAzDMLdgRJ+Res31xAL5Deou1qCirBSVFWUMwzAMwzAMwzC3XKQ+I/Wa64kFkoiIiIiIiEzCAklEREREREQmYYEkIiIiIiIik7BAEhERERERkUlYIImIiIiIiMgkLJBERERERERkEhZIIiIiIiIiMgkLJBEREREREZmEBZKIiIiIiIhMwgJJREREREREJmGBJCIiIiIiIpOwQBIREREREZFJWCCJiIiIiIjIJCyQREREREREZBIWSCIiIiIiIjIJCyQRERERERGZhAWSiIiIiIiITMICSURERERERCZhgSQiIiIiIiKTsEASERERERGRSVggiYiIiIiIyCQskERERERERGQSFkgiIiIiIiIyCQskERERERERmYQFkoiIiIiIiEzCAklEREREREQmYYEkIiIiIiIik7BAEhERERERkUlYIImIiIiIiMgkLJBERERERERkEhZIIiIiIiIiMgkLJBEREREREZmEBZKIiIiIiIhMwgJJREREREREJmGBJCIiIiIiIpOwQBIREREREZFJWCCJiIiIiIjIJCyQREREREREZBIWSCIiIiIiIjIJCyQRERERERGZhAWSiIiIiIiITMICSURERERERCZhgSQiIiIiIiKTsEASERERERGRSVggiYiIiIiIyCQskERERERERGQSFkgiIiIiIiIyCQskERERERERmYQFkohuO8P9Gv1+obdXLaKBdsCwfxgeGkBf/yCkv4aHB6DTaKAz3vaNhocw0Cd2jkPfbx8zPNiPvgHxmNdjF6Wf/wF8z1m5ScQ+e6AP/QPijcU45B8yLO3rB7738qebRFpvOi20fYbX240y1NcLtfQa7/9+nymuO2l/0d8HsbkTEd22WCCJ6DYyDK2iFUneFlhruQqW5ithtnoDtgUXol980FRmBWGbUyKaBgeg7TkPPysrBOZr0G+897WGoevJht9We8TUqr9lvBGGsjkwUnaG+tBw2gHbAtPQqR40DPvehjFYGo5d9seR395rHPaPMs7f4PDlD/XSB/2+G1nQVMgO3AWXqDzUaY2D/hFNiXB2DEJ0cbtxwA0iyvnNLapS0e4X8yDehI1DbiXDQ4OiOEnbvnFAZykSfPfjYEQJNMZB15d4rbeVI9J2Hhav2w3X0/XG4T8m8TqSthvx+hl52r0d+Qg/uB3BpTe2OBMR3UwskER0mxiEqj0ZB0Vh3OiZiOa2drSLfU1TbS1OH45AmUaB9rPuWLkrCjVa8eFuSIsehQKqvlFl6hriQ2p3KhyXb8ORC6rvLJCDfYUItLJDdLXa8IFySIfaKCuscE1Ex/ftfJeIApnvD8ttQchs/b4Tq0L4XjscyW7BpSl0Z8Jzpx/iauRiCd4IPTjnaok9wRmo0RkH/SPqorF7pxtCc1qMA26MoQtRcPIJwukLP3hFfU/dyD3uA3fv06g1DrmV9NZlItTHBiHFxlfJYB96e7rQre67MUWqvw0lJ9yxyTEWtfIuKDUDxht+TBrICiNhuysSpcYhva2Z8N++Ep4Ft+I/AxARmYYFkohuC1pFCY5ar8aOo4VoV1+5fxnU9KJvUIXOsx6w2BeNWlEgDa7ebxhOa9WIfYpGq0P/kFQg0+FivhPhlSMFchA6rQa6wavuO9SPHvkZHFy+EYdyW6DU9WNoUIeLMbth4XkG7Qo1tGI+DNM13meEuK80Tel0W4124Bs+cIsCWRiIdbtCkdOiNI4vdt59o2rfsHQUaACDo/aH+iMk0im00umv2lx4Wm6A26lytGnFDn9APG5LPPautMXhvIvo0o06PVYUAP386qO7olzqpyme/9CATsxHL3o1WrF8x55rqUCmeazD/rAsVPX0ieUrnVqsQd81bwHSKY+G56TRiHkbmVx9LKz3eiIsr9U4QJCWlzQd/bxpceks5GHDc708K2KZDQxgYHDk9FnjUT4xzuiHHxbPVZXti202jgg73yKWqbQMR24zPJa0HHo1fZcf65tIy1n/HHuhMz724BWPJ+apz3iKtViuhiN2w2K9tSDR2wZ7rI8gT61D35jnQIr79usM26fYTrXS6czGW8YkHV2W1o+0nUhHB0fPy7D0Piotr379/Gr7xPaqv9PQpftoxDZ89fOVlpX0+NI61PUbtgppe+gsioOrzVq4nJVDK237+lvEbSPLcUisF/F4A+K/Ov1zF9vMNac1DxmXnZi2/rRx6XTQMY7kiXnvbytEtOdWbA4pFduiYTpD+ucjIuZfo+27vM2K16F+O5aekxh+eXsR24N0H2m59BnmSddvuHF4QGsYX/dN63xYjCNHzRk/rDfzQbpaqz+NtrctC0G7LeFTJG034vUsnSYvtqerJyFtA4b1KL12jAPHMmR4HRr2DZeXq2SoT8yj9Lyk+b40DTFf+uck9gXi9aSVpi/W/TXbk9g2+kYdOR3qN0yr96rT+q+elrRPJCJigSSi24AO8uJwbLfwwNlvOlV0SG0skDGoEx+QBtRViHHcioB8US6l24c1UGT6Y9M6C5ivXI416zbAv0iNbmUW3C1EgayWzr8cQE+mDzZv3gSv7B7oLu12xAfalkQ4bF6FhV/OwtfLzbHxYDwu9qjRkGADS+dYxPpsxY71K2BmZoadx8vRpX9Q6a79aEx0hNWGVVi10gxrxHNIaleNcTRQlIeiw9iwMxCpiYHYv3s9Vq1YCYudR1AgM54k2JkKVyt/xNfJLx0t7UzzwK6AJNTXpOLwgQ1Y9MWXWLR0OSz2RKDkfAQc91pgzhezsWT5Mpi7JaGhS7wBDHYh1X8vtlqIYRZmsFyxCf6ZDVAan29Plh/2+cfieMB+2G9bjpXLl2C9XxpqR0a4ggppnutxICwBRwI8YL1mqRj/a+w9XoQGjXF88WG2Jz8UTjtXYcXKFVi12AZHCxvRK918VYEcFusx/5gTdlksgZmYN/Ola+CaUII26S2l4xw8XQ7huCjw+in3lSLMfg8cj+XCcPyyDUnezvAJzzL+bdCeGwbnDTPx1dwF+HrhAuwOTYN0IHJ4sA1pRxyx6eulsLBcgZWLdsIvqQKKsZ6mMCw+7Fcmi3WzejFWLF0K66PBcHc/BP/AJNTq7yO2k5oUhBwwx/IVy7Fi0Ta4x1WI5ylD9jE7LJ81CwvmzcWiNfYIS2u4ZhsY7ipDov8OLF6+QqyTRTCz9sep6m848iaWaUPOcTiuNczLbn8veAQehY9bFCqk21uyECme2x4XL3itW47dvqfEPA5CVhwDl3Vi2a5ciiWb7RCY2mwsGaKYqC7ifOg+LF0htuOlq7BLTKtUNO3uqiQxjbmYP/8rzFtghj1eJ1GjaEXecR/YhhaJV410RmsCQjz3wT0mDvYrlmHl0pXYfjAYOWrDwhwe7kVD0XHsWypuW7EaNo4uOHzsKA4eTLjmiKxOVoW4g4uwaP5szJ2/EJtsvXCyqAnZJ+yxzSMIgVtXYJttEHLFy2K4pwHnD22CmbnYjleJ7XnLHnildxqek6oR2ZFO2OGXgAR3sd0tW4PttrEoVbWg4OgOWIplYLbBCm6psmsKIAZ70J4q9ifLFmLerDlYvG47DpysgqotD0dszMT/ToTzGktYiNfoui0OON02sjaHoZGXIEy87taYicdcvQFWofmjCuBlw33dqIzah3VrVsJshSU2bw1Fjr5tDqO/pxKR+9dgnblYF6vXYnNgNtTSgh7sxcXTB7HFOxTBe9fDatMeHInzw1anU6jRjyDdvQ+qnMPY4ZSAGo0okf31iHPYiPXmy8VrajXW+aZDoT9bYADNyU7Y5huKIOsN2LZhDyJrVIb9JRH9rLFAEtGtT3yYa0txh8XeWNR/05Gwqwpkv6oMoVZL4XReg0Hp6KEoj1s2eCL6YjPa2hrQJD7MxpZo0CXPhJvlbkRWytF5/hC2ig+KvucvQqa98ujJ8IAKbQ0JsF+5Cb6pVWiSq9E/2IeGaCusEGXhQEINmtpa0ZLkJEqkFULKu/Ulry3JEVv3HkJaTQtksg6UHrPGRt8UtHRfWwyGiwKxduUSLLaPRkVdG9papUK0HmvcT6JRKT5YKhKxZ4UDIqo6Ln3Iaz+9D6scolDZ1gOl/DzcVm+ES0wuqjtFAdb0QF5zAnvM9iMgrQQNCmmeFUjztYLZbn9kljWKZSEeRzzv7WsccbS8XT/PqlRHrF06C5uCs1AhnlNbbqAom+vgmFKLLsPDjqJCpu9mmM1bhoNx+ahpF+PXnYTTViu4JJRDLsboLwjC/j2OCM+sRIdYBk2JbrByPYLMBrEM2uL1BTI8T/oO5ACKw21huc0Jcdm1hnkrDIftBlt4ptVjYLAJkTa74Bh6XlRFsbwqwnBg5Sf4fPcx5MnEgKEC+Dl6Izix+orTkQe03ehI9cQ264MITrkAWbd0hFSGtKA9sNjsidh8Mc/ieTalinK40xZB6Y2XjtxcNoDKeHfs3ueiL7Ctra2oTA/CrkXTsd5DlDMxxvDFU/C13Qu36Dz98+w4HwZHFzeE58qh6REf4t33Ybd1ENJa5ejWjJ5Dg/bsTCTFx6CgQ4bO2hQE7t6F7f5Z6DDeftkwGjOCsX+3DQLTGvXzUpsXDftV02FuHYYSaZSWNARtm4dl+4JxvrkVMqUKdTnhcNhjjUPphm2x6LQfHO1dcVpa9H3VSPOzxxbHGBR2dEBWl4UYX2fYhBVC16cWffQ4nK3XwSmhDrIulXh9VeFswAFs8Mo2Fsgo7JszC+sOnkSJmJ+GvHg4bVqKXcHF4vZBNOUHY9/GPTicI5Z1aztqC6Jgt3gBzHeIbVea31H0R4xr0xHmshmbD2Wio7MLalkNkhwWY8F6Z5yuaRXDlNB01yPDawvWbQtEqrSttDWhJN0fO9fsQUSdePWqm5DmuhBfmW1HaGErmi/kIsRqJhat3QbnxItoa6lAzuF9WLklHKXX7FaGMNDbjOIEL2yw8ERSawfkqj5oOvPhZzkPZlsOI018EGqpLULo3q+x1jFZv550XSWiYG6EzfES/TJuqUlFwL7NOFR45VF+6R/FlOVR2GPpgpNNbZCJ+W9Nz0HB8BA0qkpEHdiAvWH5aBXTaG84ry94fnka8blIh+qj67Bo+VaE5DWgQ9pW2pJwwGwnjlWp9NvtsLYW0TbmOJDYDIVYBvFOG7Er5Dwa2sV6bS1AqM16eGUq0Cv2k80ntmLJ0g3wP1+N5vZO9PRdud8jop8nFkgiuvVJBTLJTXw4jkPDmKf+CdcUyHKE7TaDR24vVD01iBEfqOxOd0BtHF3UGv1pX5ruTLhbbEVATDD2bt6HIFEOVMYxrjbUnwsPyx0Iv6A2fMga1uFi9C6YO0aidqRZiQ/iYbtWwOFsO5S6Dpw+sBx7jl9Am9aw89UqUnDQwgOJjcqr/qXfeArrNm/EVymMw8RjNp7ALgs3xNd3ob/7DA5YuCCyWnbpvh1JtljtHI2qTmm5VCNwoxX8M5ovX9ik+xwOrhGlRxRk/Twr0+Cwxhb+2fW4fM2bDsQfsIRNZBFaRBvQZjhhna0v0mpHxpAj0cEC+8JzUXfN9xx79Ecgd3snoLh7ZD89hPKw7djmE4tylQYlgRuxw/MkCuX9hv27phAB210RnNqAAXkiDkgFMr9TLIJSMXw/nONKoDROSSqo6V6bsTcgCVVivTbFWsPpSBzKxQJoSwrCCc+1WOYSjeSqfgxXhsLpUARSLl57uGe47Aj2OXkhtsy4ZDrOwX2/nXisSn0BMmhCnPNe2HonQeofVxiqxHE7O+wPzMCly/0MNCHBdRdsXOIhXeKlPt4ee/d7IKFBp3+eQ7paxHl4wNU/VzyLPuSGOMFOFLRqw72vMdjXJ97zetEv3XegHamHpOlFoOyap9OAFF9H7HRKQP2lRd6JzNAD2LM3FMXS301ncchxB+zj6ozFpQ0ZQU7Yuu8YyjRi+uIx+lrP41iAs9hWFRioT4aX7UY4n+kU5VrcPqhBZVIIXOx8UCjuPVB3Dn5OW+Cbb1xa6iqcC3LAFt9c/fLrKIyA8/ZtCC4b2WbakXPUCVv2nkLbcCvywg5ivVMKLm3ZYljuEWdsHaNA6nXX4HTADuyIqjP8rbyA0z5bsPlw0aV/HOiuTYKP1Vp454/aKMV4CR6bsS2qHsOqBpwL2Ix1ooTrj3aLR688uhtfW/oi0/gCkleK4mt2AKfF5nctLWS5R7BtXSiKjEN627NxyMoMrqndxu1Gh5ZMP2xafRhFg72QFYdjm5mLmJ7GsK1rO1AVYw/LgAJoxPZ7WR+6SkOxxWwvohq0hos7ic854pMPlBXHsX3lQcS2qjAgrYs+BRoSHGARkI8e8cGrJmonzF1Oo2PkaYvbz3iYY9eJamgHh9BfHyP2Ge5IkavR2xiPPSsP4PhFhWG9DqjQnuQESx9RzLs1aInfI/ZfMWj4pp0eEf0ssUAS0W1Ai8588WFrjT+y+r5hXzBmgTSHZ14PFPJMuJpvQ8TFvquOLA2jT50Bx6/nYfGSxdgTW4+ub9zViHF7z8PNwgpHSrsMBW7I+B1Ir7OQ9xqmPDTYKMrqKjieaUOXrgx+qxdj6dJVsFxtgTX6rMDyBRsRUqYYVeAkxgK5Kwz5I6esSoaL4bPaA3G1Muj0BdIVUTWXC2Rn8gFDgZRJH2crELBhO3zP1aHbcLP4hJwCu9VOCC9vM9ynKgxbtgcgue7SGHrl4Ruw3T8R1T3iI3GmM9Y5HUNJy8ijqJDmvgb7RYG81CkvMXwH0jYiD3UjowvqDGfsC0xAibIRiY4bsHzuIpitsdQvg7VrV2HpVyvhlFSD3qZk2FuLAlkoqoVClMndHgjLl44vXlYfvw+7PEKQJXXMEn/scjqE1PpyJB+NxdmcJIS5ByPibD7ORnkh4HgKqq/tj+gvCsYeBw+cKDJU04FSUSgPuiOycPRyGERxmDX2u4Uh58rFoz992MfWGW4JNYYirqfAOf+DOOAcL6pnPwoibGH+xRysWLPasK7XmGHZnCXY7X8WLWJt5wQ7wPZgFMrHfHscFu9zTTgf5Yw1S5dj9WozLJ2zAFtdo68tkN0FiHRzgPXRklFHWntQGOOF/XtCDGWn8QwC3KzhkmxclppKJHtvwszZS8TyN2yLay2WYtHybXCNr0DjhVgcWD4di1atwTr9dmoJ88VzYLHLBUldYvnVJsPHYTO8s43b5lUFsr0gHK57d+N4o+Fm6R8lik74YMc+6dTKcpz03oldkReNt0nkqEjww3aryLELpLwC8X5WsDpWZfhbIQqkKJTbj43U7z40FUfAdu0BJI9eV7p2VEQ7Yo3beShV9TgXuAObj14w3qhEXeYR7LRLMh7VHUBHTSzsLPYjYcyLAKvQcj4YW9ceRp5xnUnfgQzcvRp++sO8Eg1kBUexfc1hFOh60HHWCYvmLRbbuli+0jK2XAXzlSK28Wi96uwJ6ayG1vxgbDdbidXrN8O/qA/Sd3J7MlyxZMESrJTuL60LSzNYrFyOldYn0dSjRFX0blj6nodq5Bz74QHRm8Oxy/YkaruUqE/Yj11h5VD2DaA/3wcrFy3BCgvzS9NavWoZlu6MRI1SJYrpPv3+64dfRZqIbicskER0GxA7so5cBFmtgWeuCtccBNPv2L75CGRPdwXCdprBLbNn1H3FvkbsV7Q9mXAz2wSPI+7YutUK3pkKjHx170pSgZSKqBWOlvcYjuqMFEiPZHSojAWyvx4nrI0FUtuCOOtt8EkuRq3xqrHt7R2QyxVQ9199qpixQO6QrsJ6uUAOt5/Cfks3xEnfexQF0tbMCcer5cajH8NoPWUDS6eRAlkO//Xb4ZfWcPlIqzwZByydEFEhM8xzZxJspdNVi1svlVBpOsVHNsA+JhcNYgFpMxyxzjEMhU0jS6sb59wMBfLiNxTIfSEZqLl02zBqTuyGlW8Myrq7ketrA9eQBBS2tunfH6Rl0NnZiR7tAIbq42AzcgRyMB/e2w7CO7ly1JFioDZmHxyOxqFQlFvosuG9xx3B/o5wSEhDVsuAWAbO8Ivzwp6dIQiPL7p8lGuU/sLD2C0KZHSJ8VBLSyJcbJ3gnWI8wqXXh4IjzvAKjsMFwwK+rDMdvtt2YffR/MtHR4eqcOLgFmx3PYVG8Zyror3g4nII55rajOu6HbIOGZS90umLCqQFHhQFMhojdeYKwxeRHOANO69TKG0T92+7gHhvG+w9EIHSqz/b9xQhynYXNnqmjjq9tQln/Xdj074jhlNYpQLpug/OicZvgw7W4Uy4F/a6JuBi6+VtsUPWBbW2D/KyOAQ4bcehnBa0Gee9o6Md8m4VpGtSqSqT4H1wM3xyjVvNWAVyzy5EXFqc7SiI9MIO69OiQF5AnNN6bPLJvnx14P5G5Ppbw3xnFIwV8UpjFUh/K2wLH6mbw5BXJcBj+yYcrhz1StK1oDjWDZuOVmFQFMizgduxKbTMeKMSF7PDsMchGdIZz2Im0FEdgwMWtjh17XnCgiiQmYexZW0wCoxD9AVylyV8Ckcu/tOL9rxQbJMKpHR0rzgM23aFIK+h5dI20C6To6tbY3zNXq0Pyo5W1F04LsrwNgTmKSErj4TVTrEfqG26chpKMY2+HlyI3AkL73R0ay8/7wF1NY7tt8ax4iJEHNiLiErD96z7aqJgZRWAcxfqR02rEwplL/oHtaiLHdl/GTcy6eJL0oWYxtwHEtHPBQskEd0Whgd70JKwH0ssN8H25EX0anXQ6XRQdcqRdfwEyrVdaD/nCbM90bioL5BlOLpzBVyytOjr60VF6BZYrPPDua5ecT8VVPUpOFOphVKeIUrhThyvbEdD/mFsX7seLqmi3FxzdUipQEoX3NmGw/lt6OkTO1PpKqzRO2HmljSqQNYhau9y2Ce3oXtgCI2xNth84BhKFFr9fkwf/ZjXGi4IwOrlS7A3oQ6d+ufXhFMu67HZOxUNarHjHiqG3/pV2BdViVaNuF12Dm6bvsYXuyJRp5A+AF5A4Mat8EqqRId0BUbpgeRnYb/6IEIL6tEtPaehDv0RwZW2YShtEWVcLEPdhWhYr92PoKIWfcFWnTuINQePomBUgTzrYgnrsJwxjkBKp5iuxzKzg4gXJVU/vZqTsFu/D+5p1VCJmVBneGPPXg/EX+i8dhnUx2DvbneE5UqHgHTIDtiFVTu8kVrVZZhWfRLctuyDS3KF8SI/KuQc9sC2JQuwPzEXjdJib4pHsLMlpmwIQnJZ15jLt784BHsOuiIiux190gfkoRYkem2D2fZApNZJy1oHddkJOO22hl9y7agje0ZDbTjjux0rN3ojUSwEafzW/KOwXjIdG6RTXsUoA2I5utvYwP9cnf5KuVeuaznSDztg/4FwFEhXe736u7zKPBxxtMO+0AJopfuJ7Tfabh3MbY9dewRyuAv5kfthZmGHiDK1fl46L5yGi8U0WIhtTf+TE40p8HPeA8fTI5cTGkR9uvS9SXscL9ddWg8jhrvLkORhg21eqWgemfdRs9hTlQJfh41inXahT7o6rPQdyEB7bPLOMRTI/DA479qB8EsHGduRf9wDW3fFoXG4G+XR+7BqjTUiawzLWlZ1Gs5iHVqK1+vYBbIcJ322YVuEsTAqKnDKdxu2hF2u30PKKiQ7rsaaPVEokbYVnRpNpeE4sN4KgRek1itKc8BWbAge+REOJWrPS0cgE43FWxTIqmjsN7NBwjcVyKwQbF3tj0yxzqRT3nvbziNghzm8CkYVyNxgbLE4hFyxwHo783Bo1yY4Jbfofy/26uV4yUAPeooiEFwoPpyJEXRd+Ti0bSXcpX/w6irHkX0bYC/2A1qxL7tiXfX3oOK4Fcw8064okBjoRU2kKMtODtiw4xgqVYYteLC3EuE267E/ulLss66a1pAOdTEj+y/DsP7m0zi4xRph4nV0+R/biOjnRtpPsEAS0e2hT4m6C5HYt9wMq83NsdpiJSzXbYKN9N2f/l4o0ryxxiYO9foCWYGIfRZwz+rVl4FBVSvyArfCYs0qWKwyw7r1exBZJz6s9WTBY/UeHNf/iKEW7afssdx8LdYfyoH6qtNlhwdVuBCxA5YWZlhrZ7gKa32CDdZ4pYwqkA2I2W8OpxRRMsXdh3UKpHiL6a1eDgsLc1haWmK9Xzrkvde0AgyVhGDjTh+4OG2C1eaVsDBfiWX7j6GiTZRP/Tj9UGf7Y+t6cywTz2Ht7kCE+22DpUc8ajulj/H9aIy3x7Y1y7Dc6giKOjRihrTID9mBjZYLsdxFugrrIPpUDYh13opNZsvEPJnBYsk+HM6+CIXx+6Xdac7Y6ByBoubLBTLVYz0OHMtD3RgFMsNnK+xcHLFzjzU2rFoO88VmsD9RgMaR3zPpV6Eo6gB2rF0EM3MLrDVfjhUHo1DcLm5vS8B+a29EGE9bHegVRS3AGltXLYa5xSqYfb0DXqdL0TrqMpa9eUHYtWkPgs8bryCqK8ERazFNx3iUSkcpxzDcV494X2tYfPkVdoam44JmWCyHasR5W2PNQmk5LMdyC2sEiaLaozPO9xWk8QsQ4bodSxeJ57h8GfaF+OHAvoNwcI9DlbSCpCM6acGw2zAXK83E8xTLd9kuX5wqk45ZDkFzIQH+O6WLutghLP2qq7CK+15IPoQ9qxbCfKVY97a7sWnDdji7nLj2CKTQr63E6UN7sHSB2K7EvOzycYG9izvsbC5/BzLQ3QauSZd/HmWorx158e7YMH+Z/pRqixWLscXpMNL05WkQuouZCLNdiaWrzLHWYgVWrN4L75gKfZEY6m9BbrQtlsxaht3eJ1Erb8T5UCdY+ecZCmThMbjv24vjl37vvx2FJ3ywc2+M/gJDg91VSD+0HfOWiue2cg2sD9rD088TVju/6RTWC0gI2IVdkcZTVhWVSDy0CztGjkhKpJ+qaC3FKRdLse7Ea2vlUqzZvgsB2QpopFXYU4ezQTux9Wi5YXzpFNbscOwzXvBGer101MTBfo0dTo9ZIEWx66xFlPV8LF27FbZx0lVYcxGydx38ikYVyPyj2LEuCDnSghiWpnkC+5atMuyjzFdg3dadCCm7/JMaesNadJeFYJO5JSzNVoj92HpYR5ZCLkrh8PAAuppOwlashzVmYl8n9nNrN27FoSLxIa5Pg+oTe7DGN+PKAinWX29lKLaIfcb+Ux2jzqIYhKojCQ6rLbFa7DNWS/uu9evhk6OCbmAQTSf3Gfdfxj1MQzR2rNgI/0L5VafYE9HPCQskEd1m+tHd3oKW5mY0NzehubVN/6FL+rA3pFNBIZ3mJf0lPsj1KuX6MnBp76FVoL1F3K+pGS1tcvQOSh/WdOhRKPVXJNQbVEPW3ooWRe+Yp3EN68Q+rlXcv6NHf1EK6QqfCpX28m8Tig9/mm7xuNJFc4yDBntl4nHFvOrnWdxXrsbgWLvIfjW6urVQK9vQ3iqN34K27lFfLJSIQqiQtYrn0KSfB62mG11q8ZxHZqC/B/L2ZjS1dUFrLIRD4nnLxPSaZCoYf9oPAyq5cZ5EWsS4o57rkK4Hih7ptzVHBg5B16NAd+9Yv5knPmSruqDq7UGndNVJMV/Nze3ouerHMKWfLJC3iXmQnr94zKaObjF/4oYhDbqVKvSO+rG8IY0SMuO8NTV1Qn31gw6oxXtNj7jPyGOIYq3sRJdYD9Ikv0mfugvtjQ1o61JjpCMO9IphTY2GxxLLrPfbJiDor+ja2orW1hZ0KvMQaucM+8BMUZeMBsXzkUnzLZ6nmG6j2M6kbUFvqA/qrlaxDDrEOrvmGKe4Wax/se6kddssk0EmV0It1sO1YxoM9akgazPMi0xZipM+HtjndBoN0o2ikKp7lJcf22hIbGOd0jqXtkUxf60yheHnIfREiexuN7w+pOUh1qO8W2d8/QxjQGwX7WLe2uRi2xfv0Tp1j1jmhu1T+p3FHqX0OtL/KYhy16tCl3SqpHEI+nrQoZ/fNjEPxUg96oyNrqljXNlXGOqHRqWEcmSC4m+t+Lur99qlMaCWGfYHYt5aOxTGC+YIQwPQinV+eVmL16uuF0rxGjMslWEMDoj1pRDb4pWLaRSxfXeL/UFLKzp6dBgaFOtQqYDxaQtiGtJ6U4ht6tJmKvZRbZf3US3i+XZdUfYMhgZ6xWvCuL7FOIorGtsAeqT9kH5diWmIx1foy6VYD+L1oVCJebl6kmKdd3XKxGvP+PclokTK2kZNqwVy0bClj1WD+mld3n8Ni+WhlHdBzauxEv2ssUASERFdB8NXvHkO4WKKB9avt0ZotuzKo0s/AmlehkY1iNa8o9i5fhs8kpqN5einZVj6bt2l+e1Hc/ER7DTbApc0BYsKEdFPDAskERHRDzaIi+eCYb92KcwtLfWnpy7ceBChaQ3o7f/x359aCmPhtuHyvCxavxceCRf033P76dGhpSIWB1asxGrpSrxmS7Fq8044nWoY42gZERHdbCyQREREP5h0qq4cbY31aGhsRGNDPRrblZdOhf2x9WuU6Gi6PC8NbfJRp6L+1AyjX6tEW30DGo3z2yTmd+TCn0RE9NPCAklEREREREQmYYEkIiIiIiIik7BAEhERERERkUlYIImIiIiIiMgkLJBERERERERkEhZIIiIiIiIiMgkLJBEREREREZmEBZKIiIiIiIhMwgJJREREREREJmGBJCIiIiIiIpOwQBIREREREZFJWCCJiIiIiIjIJCyQREREREREZBIWSCIiIiIiIjIJCyQRERERERGZhAWSiIiIiIiITMICSURERERERCZhgSQiIiIiIiKTsEASERERERGRSVggiYiIiIiIyCQskERE9JNRUSfDZrcUfLo2HJ+tkxLB3PIJ16/Pza4p+vVLRES3NhZIIiL6ydjtm4qHprji7o+ccO9EKc7MLR8n/fqU1qu0fomI6NbGAklERD8ZX++JxZ/GO+DxaR7MbZY/jXfUr18iIrq1sUASEdFPxmJRMO6a4DhmAWFu7dw1wUm/fomI6NbGAklERDedYR8+bCyQTmMWEObWzuUCOcz3bCKiW5i0D2eBJCKim8qwD2eBvJ3DAklEdHuQ9uEskEREdFMZ9uEskLdzWCCJiG4P0j6cBZKIiG4qwz6cBfJ2DgskEdHtQdqHs0ASEdFNZdiH/3gF8rGp7ldmjHGuGO+aYVeOp8+3TOub7nP1cMPfY+WqcYz/++qMjPtNt4/k6ml/1/jXIyyQRES3B2kfzgJJREQ3lWEf/iMVyE/d8OAnLnjgE9dLefBTdzx61XhPTHPHw1NccP8kVzz8mTuemC6K1meG+94/2Q2PiOL1xKXxpXFdcb+Yln7c0dMRJe3hydfe58rhnpenfdW86WMc51ExjnT7Q2J+Rz/GFdP75Op5Gx13PPKpNM2RxxD/FdN++LOxxr2+YYEkIro9SPtwFkgiIrqpDPvwH6FATnTEH7YlY39OB4prZCi7KENJdT28d4Tj7+OccP+lcV1w77gorPavR25FNVZaHcVv37XHJNt0RFe2IyPmJGZ+7YD7JkvjuuLucSFY4HIB+VX12Lz/GO76yMUwncnOuHtlLDantOB8YjLmLXMy3EcavjwW65NakJWUgtkLD+DVLYk4nNcqptGBEjFfZbUylI4kNw3L19ri/e3JOFPahH2OUbh7ovExjI9zz+IorIpvQk5qGlaYGx/n0vOR4oK7PjyEKTsKcaa6Q//cy2o6kHNGTHvlQdz5sftV41/fsEASEd0epH04CyQREd1Uhn34DS6QnzjjTqtkWNdr0N1QBjfPE5i55QQcUhvR0tGJsB0ReG2CMx4U4z7xiQN+uykDgRek96oBJHon4MO37fHI3EA4Z7SKQXLstgnF78a54MGJB/HO9nRkKgFFWgEWzvbGPVPcjI/phD+sOwOvNjGZ5lysW+2Auz4xDl+TAtcWMbwlH5bL9uGdAzmoFn92nS/Bvm3RWGB9EktHsuMIXplhh6/c88TcAOFHTuEP45xHPTcn/HHVKVhfFDfKS7Fnk/FxRm4X5VEqudN316FerkL6uWx8tTkSszzzcbhWA3ljBbbZHMWdk1xH3ef6hgWSiOj2IO3DWSCJiOimMuzDb2yBfHCiIyYdqkC9eJxyv2i884EtfiNy3/QzOCaam6okFYsWOODuya6478MQLD7WhrKGFtS2ydFRW4vNGw7hf962xaOiLMbIgbaKc5i1fD9+uSAG1iW9GOwow74NbnhwnCsem258XKnYrUmGS90w+muyYGF+EHdNcsdjkxzxB4sk2NcOYaA2B6uWWuNtmyyUDQ6h/PApfPCaLX4rloO0LKTcPdEVf/zAEXPcs9E1OIDDQfH44/grC+SfVsZjV/kAhpqLYLVBPI9RBfKBjw/iwy1nUCgDcjOz8eIMaXoH8cePXPGoXS6ODIremZiJWe874YGRaV7nsEASEd0epH04CyQREd1Uhn34jS2Qj4oC+bRnMc6JstSZeApTv7TD7yc4487xvnh9RSS+2BiEV79ywyOijP3v8jPwq+tDc3gKfAOLUIc+JHnE4rX3HfG7z7yxIOIiutGDuP1BWLg/FxfF/EceicWjnzjgwamjHnd0gazOxMrlB/DbcS64f5w9frPyFGxrriyQpQOiQIacxoS37fHHSWI8Yx741A13T3DAbLfvUyBdcNcHITDzlWEQjXBzdMf/fOiKJ6Z74okpDvj9J8ew4rgWw10VcN528IrieT3DAklEdHuQ9uEskEREdFMZ9uE3+BTWz9zxpy/8sONsM/qGe9HU3Iqc8maE74nAG6/b4DcTXPDQVE88NPEgPnAtQEWvBoecIvDQhFMIKBhAe+5ZLFzggLsmOuCRz2PhnqZGR6tCvKf1QJaUjyXT3fGHyVdd3MZYIB0q+zGsU6OxoR2F0nccq9pR0NiDNh2gqsjCSqlAWmcirxfQKnpQXdmOohoxnj4tOOZ+Em++uR8zvk+BnCxuWxCHrefFG7ysGHu32uOeUeXyng9CsdCxDb3oRMihI7hz4o05jZUFkojo9iDtw1kgiYjopjLsw29wgZzugUc+dsLfvg7GjF3RmL29FGdrxMP2qFBdXAXnbeF4fbwD/vhBCDZHtaOlJh/LLJxwx4vOWBlSC2VXA7bsDsAfJrrgwQ/d8NTBApyUvpCoqYDjbg889oELHh05dXUkxgLpVDOIwbYq+PnGYMHeBKzYG4t5fsWIbhuGrjrbeATyPIp0w2hOL4b1jlgs3i/G0+ckZpsdxpPv2+PL71MgJ4nbzE9ie5V4g28qxs4NjlcWyPHBmO/cCPWQCmGBMaJAjro4z3UMCyQR0e1B2oezQBIR0U1l2Iff2AL5xHTDz3LcNV4UqnGiKH7oizdWhGPm1iKcqhpGX3MVzFd5498sz8K7XrzX6HrQUNeiP0rZoNSI+RtAmns8xkvfE/zEAf+z6Qzcm6VTU1NF0bTDH0Qpu+anM4wFUn8Ka1UGli6xwa/fc8Ld79niP5YmwLpavJ+N/g6kdAqr9B3I123x24/EeMbcN9lNLJfveQrrZ064c8oJrD/eh4HeMtjts8ddHxtvm+aMuz4IwzJXJbTDDfDzFEVv4o25GisLJBHR7UHah7NAEhHRTWXYh9/IAumKP08Mh+Whi0g8E4fPlzvgrkluogja49d/j8D2KJV4fBk2W/njA68i1KpVCAlPxeydJ2FmF4c5WwpxPF86WpiG1avscec4UdjWnYVXgxhWkY4Vq668aM2ljC6QNVmwtDCOJw23TMLBqy6iI30H8sLRZEz+0Al/ln7gf1TuHX9lgZSuwnrpduko46gCuX299PyMt01zwz0fuGOecwnU4v+CAyLwPx8Yy+fHB/G7xTHYUDGI4RJRPL84iHtv0G9CskASEd0epH04CyQREd1Uhn34jSyQ7vjzBG9YnGhFH3pREX8M42bZ43/fscNvRBH0bxeP35iFOQvDsS1aCXVzHpatcsR/vSMK3wQH/OYNN1geka7f2oHdB0Pwu7dFiVwvCmTTMPoupGOl2XcUyPphDIxVIC+K97OLV16FtSL4NMa/aYc/fOyM+y7FBX/64CDmuOege2gAAf6x+K+37C/fLsrl75fHY7dUBJsKsMnSFv/vw8v3vX+SPZ74IgYuif1QKVuwacdh/PbtA/ifWaH4PEGGFuhw7kgCnhXF8pGrT8O9TmGBJCK6PUj7cBZIIiK6qQz78Bt7Cuujn7ngr/MOYWJ0PfJ6NGhuaEVuWStyFBpUnCrA9vkumGxXgBINUHMsAVM+ccB9U433nWiPp1xykSpmszM3FZ/P2Y9fr0lFQIeY7bpMmJtf/buLxoiiKP0OpGerGK8pB+ssjeNJw1enwKVZDG82/g6kbTbKpbfGbhWqyluRV9mOwpEUVcB8kz8+O5gJmRilp6sbOeVtl27PPHkaX+yPxqbiQXGrDm1N4rldGLl/HWzdTuB377niiRmn4ZogR4dK3L+0BdkNKjS1NiP60FG8Ot8X93121UWArmNYIImIbg/SPpwFkoiIbirDPvxHuIjOJCf8cXYQxu9IwCq7RFgeFLE9iVmiPD3+viP+sjIM8/bFYOrCADz7iRseNd73ic/ccN/8w/jQKg7LtwTjra9c8OdZQRi3JRbzNx7Ga7Pc8PBYp36K+z00OxAfbhbjbQrG618Zx5OGfxWI9zfFYMGmELz2pQueWxCMaVax+NomAWbSfNmfhsVIbGMwYYkvXlgQhJm7YrFUjCPN+8jtq6yO4O0lfnhtzQks3BOPFQek5zZy/3hMtTiMhz4V8zzRHc/NCcf8/acMz93uFJZuCcGrnzvgnklueOIGHX2UwgJJRHR7kPbhLJBERHRTGfbhN7hAShEF6Ykprrj/o8s/0i/l3imiLE73xKOTXXCP+Ps+/d+jLooj/e9Pjff72BUPT/XEk5+54oGJTrhb+vszz288cieVT/14E13x0KjxRg+XpveomP59V83XpXzkjAc/ddePc+8Yt+vnYYo7HhIF+erbpNw/WSqH4rH1FxJy1j/Hkdvulq4qK0rtjTryOBLpsVggiYhufdI+nAWSiIhuKsM+/EcokMxNCwskEdHtQdqHs0ASEdFNZdiHs0DezmGBJCK6PUj7cBZIIiK6qQz7cBbI2zkskEREtwdpH84CSUREN5VhH84CeTuHBZKI6PYg7cNZIImI6KYy7MNZIG/nsEASEd0epH04CyQREd1Uhn04C+TtHBZIIqLbg7QPZ4EkIqKbyrAPH8bXu1kgb9dI61VavyyQRES3NmkfzgJJREQ/CcttTuLuj5zw2NSxSwhza0Zan9J6ldYvERHd2lggiYjoJ2IYRxKK8OoCf/3Rqrs/csY9E5lbPdJ6lNantF6l9SutZyIiunWxQBIR0U/C0NAg5IpupOZV43hiMY4lFon/Mrd6DOuxWL9epfUrrWe+ZxMR3bpYIImI6CdB/+YjygUwINIvdvh9zO0SaX2K9Sqt3+/7/k9ERD8NLJBERPSTMbKPH9nPM7dHRtYp36uJiG590r6cBZKIiIiIiIi+EwskERERERERmYQFkoiIiIiIiEzCAklEREREREQmYYEkIiIiIiIik7BAEhERERERkUlYIImIiIiIiMgkLJBERERERERkEhZIIiIiIiIiMgkLJBEREREREZmEBZKIiIiIiIhMwgJJREREREREJmGBJCIiIiIiIpOwQBIREREREZFJWCCJiIiIiIjIJCyQREREREREZBIWSCIiIiIiIjIJCyQRERERERGZhAWSiIiIiIiITMICSURERERERCZhgSQiIiIiIiKTsEASERERERGRSVggiYiIiIiIyCQskERERERERGQSFkgiIiIiIiIyCQskERERERERmYQFkoiIiIiIiEzCAklEREREREQmYYEkIiIiIiIik7BAEhERERERkUlYIImIiIiIiMgkLJBERERERERkEhbIb1Ajb4J/Tgy2xLthQ6wzqjsboR3QoVunZhiGYRiGYRiG+UmnR6S3X4vBoUFjw7k+WCDHoBELesHRXbh75wTcYf487ljxJBIuZKBL242m7jaGYRiGYRiGYZifeNrRqpKJDtNjbDnXBwvkGKQjjU/un64vj/+58XX854bXkFydDaWuBy09HQzDMAzDMAzDMD/5SEWyXSU3tpzrgwXyG/zNYQ7+z5qX8CsWSIZhGIZhGIZhbsE0d4tiplYYG871wQL5DVggGYZhGIZhGIa5lcMCKbBAMgzDMAzDMAzDfHdYIAUWSIZhGIZhGIZhmO8OC6TAAskwDMMwDMMwDPPdYYEUWCAZhmEYhmEYhmG+OyyQAgskwzAMwzAMwzDMd4cFUmCBZBiGYRiGYRiG+e6wQAoskAzDMAzDMAzDMN8dFkiBBZJhGIZhGIZhGOa7wwIpsEAyDMMwDMMwDMN8d1ggBRZIhmEYhmEYhmGY7w4LpMACyTAMwzAMwzAM891hgRRYIBmGYRiGYRiGYb47LJACCyTDMAzDMAzDMMx3hwVSYIFkGIZhGIZhGIb57rBACiyQUtrR2tsD9UAfenUKtIu/m9RKqPp10PUp0aESG8uY9zM9bZoeqAZ06BvSokerQJt4jB86zRuV5m4ZZFo1tEMadGvkaBEvlLHG+0fT3N2Bdmk5D+qg1nWh7TpN98qIaaoUUEjrrl8FufrHXc7SsmtTd4vnqNU/x9YxxmEYhmEYhmFuzbBACrdqgezQ9kIjPqRLBadVKg2jbmvVqAxlUBQ1qQx+V4FoFRtBfe1puCe7wKGoCGXKHijbMuF7zgtW59ORK+tAp1o25n1NSbtWiYaGdASddYVFlDs8SotwoadLzNvY49/cdKJT24DzZZHYGxuC0MpKtOiX8Vjj/iORoUPTgfLaJLjH+cC9MB9VGqlIjzXu90+rWhTTjlKczPTAjtQYJLZ1QaYae9zrH/Ece1tR0ZQC55P+cM7Lx0Wx3bSq5Ojs00I30Isu9Vj3YxiGYRiGYW6FsEAKt2KBlD6QF5VGwP60H4JrqnCxRyqKl2+rq02Aa7I7XEpKUdElls93FIg2UTir0rbguY0P48/BJ5CiECus0hNv7PoL7nB0RXiDDCpN55j3/a5Ihaa9+Szsg7/C7za+jf/dNAPzExORqVRB/qMVm29Os0oURl0vevt6IBflplksS9VQOQIiF+DfF03CtFOpaB3ouQ5FrxNdA+04l7YDzy15Cc8fPoKcQTVkY477/dOm7UVH3UlstH8a/7RnJfZUatDdO/a41z9ydPU3IL1oHx5b+joe8z2CCrGNdyiqcS7XF7vORiC2WY62n8B6ZxiGYRiGYf7xsEAKt1yBVMnQ3qtEXMRM/Mn8FUxOzkCpSoVO/YdyGdrEbRVn1+HxDY/ikaPxSO387qM+0uml1Zm78cbOv+LZ8DicUwxisNofH9m+jV95eCOyUYae71kg28XyLE3bjpe3vIL7fD0QVHwe2U3VotjK0X6zi4Qoj7KuWqSXnoBLdhJSWtrRKQpvz2AFgmNXiuX7BeaK5dva331dCqSivx3pmTZ4w/I9vBl2DHkDqhtQINXoqD+NHa6v4r/t1uFAdS+UP2KBVPQ1IrPEHi+tnoCXgo6hsl+LzpZMOLq/jH/aNhMWxUrIpKOSY96fYRiGYRiG+SmHBVK4VQvkqRML///27gQ66vpQ+3isXWxvfd+qvd7aVntb295q22u1L6igKG6Au+CuqLghRRTZ9zVIIECQfd9JQCJbAgQIBCEQEpaAhJCEhASyJzOZyWyZZALP+/tPkhK0lqn1cpv2+znneyxDZuY/iz0+Z5bo5mEd1XVPmjLNHdN8QGbvG607x96h1ut3KMXmUVXjgCzzVctl/oPeX+83+eS23uJqzlf6NwzIMm+1qs1l1AQvw6+agEcOr+0Lb6O1KnY75JNf+xIH6JZ+ndXzUKZc5r6o8ztkq3HLa47B5XfLVVuj2vqGywl+3tCMOEet78/X4Q+Yn7M+N2mOtdh6S665XKd1O2qrVVVjHY/fnL9WNXXmfjDjxDpGl/V5y8bT7Oa0L7yN11xPmb9OqkrTpGVP6YopYzUzz2cdnWrPZSk6OCBf0uu70mRXvTmWWnN5NXKbY7/gbcHW5w1rzRO+8Vh9jdd3wXUF+/yAXK/PFFBtwLpc63xu2b3nz2e9rbjK3Ae+P98HXlUHPzva7DKtt4b6rbcyn/8ZtznGzw9Ih7nccvMYe83PeM19VuG2jr/huWI9lsHzmsfC43c23LZq8zh7nGZI18hjft5m7k/r86sNt8/6XGWzY7Detmo9lsG/D+icKnU4s/mA9KmyNE2zFz+oqye8paHHGZBERERELTUGpPGvMSArVemvVknRfkXvWahhW2ZoyPZoLcvJVZEZYw5zHCdDGJAVZqyVlR3Wxv3LNSZhloYkzNWEPZuVVFpqxmnD+Dh/nGbcODK0/sBCvTqti3484FG1XTZGvXfGaVvhSR3N2aIZ2z5RbMZ2Ld0/T+/HxWhdXq4qzFh0VOVod/rHitg2S4O3zNGoXbFaeyrPHKvTjJkq2SuOaG3qUo07mKq9OSn6OHmeBm2doylpKUp3ulRZlqJlu+ZqUMIcRe5PVlp5pRy+C0edNTJzC/YoZlNftYm4X98K76YnVk1V+L6dSnGc0NqE3vpx39fVY1eSDuZt1uSEmcH7LDrrhAo8LlW4yoLD21ldoJSjsRqXMEMDEuZpcupeHa6wy1lj+9xobT4gO6njhg3aXbFfC7dP18CEBYpK3aPUcpsc5nylHpsKKzO14/BqjTfXO9jc16N3rdNGcx+UmvvZGuvWq8ZOT7HSMzdqcuIcDTGP6bAdsYrNL1ZF0c4/D8jJuWbs11Uqr3ivZln3h7l9B+1O85hXqbwiXWv3LtJQ6/mwbYUWZx5Tvtc8X3wV5udTtXLHci1IP6DDZeY4d5jHe+tCTTvwqQ5UOWW3Rqj5Pw9rLOfn7dTcpHnmGBZqavp2xR6dqXvM420NyGwzIJ3lh7V85VO6ZsI7GpnJgCQiIiJqqTEgjZY9IDvpzdTjKjE3/dxZf/BVsjqdU/nBD3V3+B1q1TggnX6H8nPjNW5JV908rov+e3JX3TSyg26cNkSTMk6q0OdXQepfH5CegEun87cqatVr+tXwDvrZhy/rtoiHdNXQh9V66SKtLyxSefMvhfE45LQla9KaPvr9yPt11ZAHdMP4Lrp5eqSW5KZrw6Z3dWOvtro+srs6Rw/Q06sXauXJM7JXHdWqhIFqNeZBXTfmad0e+ZSuHXafOdZRmpWZozO1AdXnf6xXo9opbHQ3dVw4Ui/MeEY/HHSbLhv2ht7evEgjPxmmhyY/p58OvV2XD+qiVxL36DOnW7Zmr5xV+H3K/Gy5+s58WNeNuE/fH/GYfjX+abVbvlCxJVmK295PN/bvrDvnDVL3pT3VLvwhfbtPK107NVLzsk/LXueV3Z6lzTtH6p6JT+rn41/RHRGP6oYxz+nxTZuVXFn1ubcONw3ISXpwcAf9fvYQvf1JX3Wc/Iz+c+hd+vagJ9UlPt6cz3o1r1C7D87W8+Of0R8mv24u9xH9x5B79av5M7Q4t1DVfrdK7TnauitcHSM76ntDH9Utkc/o5+Gv6en4ZBWVfapxwQE5WNPOnJW7KlVRS5/Xvw94XE9t3q70aqfOlOxS5IoeumXM4/p91Mu6Kfxx/Wxif40+mGGeT1U6emy+HuvXSleN66mua4eoY1QXXWfu47Bhr+nNpH06YYas01Oi7KxP9Nb0LrpqQDv9xDwn2szorvYLXtcvBj2hO82AzKr1yGs/pvXr3tJ1k/ppej4DkoiIiKilxoA0WuqATIzrrt+NuFetlk7UkMQl+jBxvsYkLtDYHYs1bMUb+uWIO9V2w06l2Gvkcx3V9KXP6cbIvhqYclhZFUXKODZbT354r26Yt1iby1wqOxjx5QOyqEr1NVlaaMbjVYM7qV3MIsVmf6b92Vs1Jfo1/WjgA7p7Q7xSqqqDb5dsONZKlVUXK78iXfNWvaVf9ntKz27doB2lZ8y4LFBcfD/dNvB3uioqQovyKnVWAfnqy/Vp4jD9fvC9+sXciZr52UGln9qr1ZsH6nfD7tIN8+cqttQrFW1Qz7mPK6z/Y2q3aqk2ZKdpw7ZRumPM3fr+gE5m0M7R0qzD2vHpRN076lZ9f2qEZuTY5a05/znOUrdNRY5iFWYsU/cZHfSNiYM1Yv9hZZcUqsyfrdUJ/fVf79+u66b0Vr/kJO3O2qJxy1/S1b07qcO6eGWd8+pY2mS1H/ek/rj6Y+0qKlZZSbKmxryga0Z0U4+9x2Wrbf5rLJoGZJQ6DW2lH4S/oZc3rdem3CPaecCMxan36Nujeqh32mn5zxZqX2a8ZiZu0s6iQhWWpGrh+rd1bf+n1HHjp3KetQUvp/WQO/WDyQM0bH+Skk+mKe7AJq04nqWioiSFmwH579PN6M4p1MYNb+vXQzrokS1Jyqg5pxrnES1b2103jnlT76bsV4atSJnHYvRm5EO67qPxWmP36MSJ5XppZGtdOeYldd4Yqw0nD2r19lFqNaS1bpg6RiuqAnKWpZnn1aO6fEhnPbphnTZmH9CO/TPV9aNO+oYZxG2sVyDNgPSYAfnJ+j/phinDtKTE/PtqnsMMSCIiIqKWFwPSaLEDMv4d3TLqDl1hhsG1wzvqRyNMwzuYOpo/36crB7VR+7gkpTrqVJU1Wx0mPKBrJg/Te5sXa7wZmh/uGKv7x92jsMF9zLgqUHF6pNp/yYCMK3HJd2qJnoy8V/93xnzzZ6cC9S4ziAKqKVitblPbK2zyZC3NLZHXb292vHY560sUH/eeburzrN7ef0BmHskbKNLGuN66uc/96rwjScd8Naoyt8ljS9SA+U/qOyMHKurEGfnMSLP7/ZJnvyKWP6fLB/fS8PQ8nS3bpJ6zzOj7cLRmZBWr3rqDC+PUd04HhQ3vp7FHclUj8/jZd2v0ks4KGztAo81p/tqqZsdm8vlUX7JNg+d30mVTwjXjpF2BOjN4zlpfovOBru/1qDpv3alc8/wwt1THDk5Tp8GtdGv0KqXaM7Qg9lV9d/BzemjVLE3euUDhn85TzyVd9YN37te9sRuUccG3rDYNyMm6r//tunXFMu3ySDVmYNWdK1FS8kj9qu8T6rRxi3LO1srjc6i4aL/WpcVqWvIS9V/VQzf2fUT3rYlXjvugZkd30WXD3zYDMFce+eTwWW9LdclV71fl6USFz71PP5z0jp5fGa72H3bUXZ+s1W6b+cmAS7nZn+hPEW31w8heemf7UoUnLtaETRF6YVIbhY18Tb2OlJufWaZnhrbVb+ZO1yZXwIzagOwlKZow83ZdM6mPphR4lZUdoy7D2ujm+bOVWF0nj9+r2roSHTgYrl+acW+9hdV6BbJhQPbQ9VOGalExA5KIiIiopcaANFrqgNwe/7Z+N/x+3bNqsWambtPKtHgt3b9Jy9MSNDv2Xd088g612WANyIDy941Qm/C2+tGkHnp40SB1XtRXTywaaMbFML24Jlqbikp16tCELx+QpW6VHYpUu7H/T61it2uvrU5Or/VlN2b0Ve1Qv3ldFBY+SnOzTqnG33yk2WSvPaP1G3rpN32e0Rv7UnQy4JGrrtAMyPd10wfP6k1zWq4Zo5Vel2pyY/SCGaPfmj1LHxc45KuxXs00I1RZWrq2h370QTf1TstQbdlm9Zz5kL45fbIW5lXKW2eecKc3qtfsDrosaoJm5VSYYeaS17lPE1a+qLDRfTUqPeeLA9Lrlr9wswbMMwNy8hhNzSqTt6b6/Lew9n1Fb+1KVUWgWrbaWp1In63Oo1vpj6vXKL1gj8IXP2EG19NqM2eQnlli7tOF/dRl2SA9u3SSxu/fpxPBL6U5f180DMiJuqdfJz24Ll4Z51yqqDan11doX1qU2vV5SPetjTeDulBJ+6boxblv6J6pPfX4/D7qOPMF/bifGZCx8TpclqQxs9ro6o9Ga/aps3I3+5bVpm9hHTe/o64d1Um/HNvRDOheGmRGoc66zONRoQNHF+hxM/yui+imx1YM0FOL+uiJxQP09NLB6rZ+gRYXFCkra4m6DHlAty5cqr11Ttl8blUW7dO0hQ/o6sjempRfoYPHInVbnyfUbvVmFdRVmVFYJXugWAeyZumexi/RaXgL61GtWvOqrvywj+YUMSCJiIiIWmoMSKPFDsjGz0C+nnJUBbWB4GCyPhvnDtSqMC1cbRs/A2m9Amk7Mkltx92l65dtVIq9TmfNiHPWmJ+ts76J1Sn7Rb6FNa7ELc+J2Xogoq2unR+j7eU+BcyosteaB7h0o7rPeECXRU7W0pOlZoA1fwXyYgPyaXVL3qucgBmQnmp5S+PUc9bDunycGaPmsuqsVyDN46HadE2PeVHfGtRLQ9JPqb5sk/5kDciPIjU/t7xxQG7Qu7M66PKpE8x5zWm1bnkdezV+xQtmQPb78gF5ZpP6z+1ohueHmpXrlAI++c5lN34L6/lf42Gv9ev44Vl6cpQZkKs+1qGyQ5q28ml9Y0QfjTpSrHOqVbW5H6v95vljrvuLvzrl/Gcg2/drpzZmhB6oM/+y+H3muVeghJ39dW3fZ/RMormPzJB+eUxbXT3VjNrMEypyFynl8Azd/cEDunuNGZ62vZq44EF9c5wZxsds5vnrMY/hha9Ajp3bXj+e3FNvrZmiu8Y/qpuWLFVcYbn8cinz+Aq9NOIO/XreTG1zm+e+dbzW86HWZ47HbR4fm44eX2wG5P36w4LF2m2GsDUgK4r2auqC+82AfN8MSIeOZs42Q/F+tVoWrSN1fnPbrVcgi5V2cIx+1v+xhs9AmkHucOabsRmr8E/jtddu/xp+JQoRERER/W/EgDRa9oC8+Lew7q/yy2/boXdnPqrLhnfTG9sSlFx4Utmlx7Xz6DYl5J9Unten/L/yJTobixw650zVsAVd9O2hL+m5TXHadSZXx06nanXce/r50Ad059p4M05df/6VIQ39DQPS+iX0NXlas76nru//oO6MWahP8k4ou/iYdiaPV7sx7fUfc2drVYkn+BnId/7KgJzztwzI4i3qP/8RhY3qpf57k7WvME+51ce0JqH3lw/IlSuV4rNrV9JQ3dS3nW5eNF3LczKUVZ6r9JxExWWkKKXCocrgY9LU+c9Adhxyi66a2Eu9dqcotTBTB9Ln69WoB/UdMwjH5RQq41CU7unTWr9bvECbbeXKOZ2gsTGv6Zr3H1H71WuVFSjS5u2D9NP+7fTLhR9p+Yl0HSs8pqRju7Qp75SKi3YqfPZdumbaaM3JLlXilp76uXnO/WZ5tD6tqlNtxT5FLXlY3x32nLps3qrEghzlFmdo9/FPtfFEhkoDdn32VwdkL0Xk1an09Bb1m9RWV4ztrvdSknWwKFtpR1fq/Xld9M1BTzR8BtIMyHJHvtIy47T4cJJ2l1YEfx3LBY8DEREREbWIGJBGSx2QCWtf0k/6tlVnM3COu90XDMis3YP12yE36zdrtirZ5jODrVSpB2bqVTMIrxjYSb/9qIeemP+O7hj3lvruTVWmL6DT+0boj0N/o1/EmHFYZR6wnPlqP661wqbP1idnKuWrr9axz1ao14xOumpwB90c1VMPfdRZPxnxqG6dP0expwtU7rfextj8eK3RdFqxsW/ounc66fndycqp98odOKO1a9/Sj7t31LO7diu7vuEX6pf5vCrO36oJ0S/pOjNeboh4Q4/Nelm/HvGQfjFluKYcP6GCuoZvYX1lyp0KmzBWM3PK5Qv45C+I1etRbRQWMVrTss1pdR75HLs1ctFjChvUU4MOZqu27nMD0u2Qy5Wp6E199NN+5rEZ/Yjarlxkbu8xrdv8jv7tnaf03PZkM6isz3vWKuNAlB4Y+Gv9ygy7RLdkK96jaau66qeD2+rqsS/r4QXv6f5JT6rjsllaVej73C/wt8kRKNeevR+q7Qe36vtjX9S9C97Vo9Nf082j7tZ3hj6n17cl6jPzWBTlx2vo7Ad15aAH9V9Te+u5pUP01PSXdG2vdrpt6UodUJ1KrF/LEd1V/zmkra4c/YI6zHpTt0W+q27bDqisZIeGT71Fl41/TxMLpJqqNM1a9pi+9cHd+uOqtUq1lep4Zoy6Rj2u/zO4vX425U/qPOdttZ70nl7euEOlcupoxjx16N1aP585V0nBAelRReFuTZjZWpeNfUPDTtTK68rVp8ljdNvodvrmwI66Y8b7emLxB+owr5uuf+8+/Xbxx8oO+IOfnZw0yzyXBr2gvp/Zgr+rk7ewEhEREbW8GJBGSxyQZeZBO3RogQbGRmpm5gnlmSFU0TggrV9AfyorVqM2jNaIA+nKqHKq0m3Gi79MR46t05gN4XolZphejBmtnnGrtcUMv5Ial87krFP4hlEamnpQR51m5BUnadLmCHXfuUMp5ZWye+2y11Yp52SCPoofp27R5jJWjVHvreu0o7RMFT6nypr/Hshgleb0Yu07uEQDYqZpbtZxFVhvma0pUcqhZRoYPU1zTmQov8b65fwN56kw90lxSapWJk5V95gReiF6hN7esEgxufkq9pmh7HXIUZqiBdsnqNvWjdpWXC6HuUxn2X4tSpyo1xI2KKHInOYzP+fM0NrkmXpl3Qp9nHda1b7z38LaVFlNtQpP79GCreP14srBei/ReptlofYfXa73YmZpTsZxldZUmdvhUm5egqasG6nhe3fpkLNajtpqFZUeUExipLqvHqEXzX3Sdc0URR02o9xhbtMFr7RVqrKmXMeyN2rcqqmamLpDW45Ha2DMUD27KkIjzGUetlWb0WlXlbdIR7PXa2TsCD2/YqT679miTZlJmvZxhEbvS9Zxc3urzKgrqTii2J1T1fPj4ea6h6tb3ApF55aoqvKoYhPD1SMhRhuL3XKbx/74qQSNjh6st+OXaHWRU15fhbJzNyt847jg8+GF6FF6Mz5G0Tn55rJtyjm9U1FrIjQ0aaeO+szt9zhUVpGhuKQI9di0RLFnHLKZ46hw5Gnn/vnBY3g+JkLD9+/UbnPecasna+TeFPPYVqvClqWEPVHqaa479nSluV8YkEREREQtMQak0eIGZGPlNR55AzVmFNnNf4xfONxKvS55An55zPCxRl3DL7S3qaLGbU6vUY35uxrzT1+dW3aPGVXmiWCdx914nnJzniKPU64687O1ZiSYIdRwGeY//s2QCp7eeBnexsv4skFQXG1GpHWs9dYrcuZYzXU1Py14/Oa05ucpM9ftrPXJ13isvoBHTvNzDQPVnN8MZmdtjfx1ruDvdrSeyH/xNJcZY36v/AG3GWWV5rQLj62pUq9T1eY2+ev98ppRaH3JS4XPI1+9N3i91v1jXV6pt1ou6z4KfjmOdfnWsTZcb9P9URMwtyk4iD8/pq1jMo+bdT+b2+32V8tuBrH1OPnN+Tzmz5XWcQcv17r+xr+rb/g7u8/6ch/rf5shF7xt5rjNdTuC91PjdZvHwvo1KsVuc7trzWnBx8Y8lub+tq7XU1/b+Jg3XIf1WH7++eDw2oLHaT0GLuu4zOPfMO7N7TGXa7dua51HVcHLMKdbp5n72DoGv7ntbuvVSnM/WbfROtbgY+u2yeb3NZ7vwvuEiIiIiFpODEijpQ5IIiIiIiKiSxkD0mBAEhERERERXTwGpMGAJCIiIiIiungMSIMBSUREREREdPEYkAYDkoiIiIiI6OIxIA0GJBERERER0cVjQBoMSCIiIiIioovHgDQYkERERERERBePAWkwIImIiIiIiC4eA9JgQBIREREREV08BqTBgCQiIiIiIrp4DEiDAUlERERERHTxGJAGA5KIiIiIiOjiMSANBiQREREREdHFY0Aal2pA3vHRa/rmgNsZkERERERE1CJjQBqXYkA6a9xqPfVVfcsMyCsZkERERERE1AJjQBqXYkCWOCvVIzZCVw2/T2Ef/EFhvW/RtuwUOWqqVVRdRkRERERE9A+fNSKtF8G+TgzIL5FZdkpjty3UKzEj1TV6hDLKcuWt86nKV01ERERERPQPn6vWo7qzgcaF8/VgQAIAAAAAQsKABAAAAACEhAEJAAAAAAgJAxIAAAAAEBIGJAAAAAAgJAxIAAAAAEBIGJAAAAAAgJAwIAEAAAAAIWFAAgAAAABCwoAEAAAAAISEAQkAAAAACAkDEgAAAAAQEgYkAAAAACAkDEgAAAAAQEgYkAAAAACAkDAgAQAAAAAhYUACAAAAAELCgAQAAAAAhIQBCQAAAAAICQMSAAAAABASBiQAAAAAICQMSAAAAABASBiQAAAAAICQMCABAAAAACFhQAIAAAAAQsKABAAAAACEhAEJAAAAAAgJAxIAAAAAEBIGJAAAAAAgJAxIAAAAAEBIGJAAAAAAgJAwIAEAAAAAIWFAAgAAAABC0uIHpN/vl8/nY0ACAAAAwP8wa3dZ+8vaYS1mQFpZBxoIBIIHbi1g688AAAAAgP851u6y9pe1w6w9Zv25aaN9FZdsQFrntw64trY2uICtl1CbbkDTuCQiIiIiIqK/r+Yby9pd1v6ydpj1Z2uXtZgBad2IprexWivY7XarurpaDodDVVVVwex2OxEREREREf2NNW0qa19ZO8vaW02vPn7+7av/sAPS0nxAWqvXWr9NX6Zj3SiXyxXMupFERERERET01WraVk3j0dpdTa8+Nh+QX9UlG5DNR6S1fq0bYS3hppdUrawbSERERERERF+tpm1l7Sxrb1m76+t69dFySQdk8xFpLeCmIdk0JomIiIiIiOjvq2ljWXvr8688NvVVXZIBaWl+sE0jsmlINo1JIiIiIiIi+vtq2lhNm+vrGo+WSzYgLc0P2rq8pppuGBEREREREf39Nd9bzXfY38u6vEs2IJs0vwFNNb+BRERERERE9NX6S3vr62Jd/iUfkE3+0g0jIiIiIiKir6ev2//qgAQAAAAAtBwMSAAAAABASBiQAAAAAICQMCABAAAAACFhQAIAAAAAQsKABAAAAACEhAEJAAAAAAgJAxIAAAAAEBIGJAAAAAAgJAxIAAAAAEBIGJAAAAAAgJAwIAEAAAAAIWFAAgAAAABCwoAEAAAAAISEAQkAAAAACAkDEgAAAAAQEgYkAAAAACAkDEgAAAAAQEgYkAAAAACAkDAgAQAAAAAhYUACAAAAAELCgAQAAAAAhIQBCQAAAAAICQMSAAAAABASBiQAAAAAICQMSAAAAABASBiQAAAAAICQMCABAAAAACFhQAIAAAAAQnLRAVld7VRlBQMSAAAAAP7VWbvQ2odWXxiQp/NygwOywvxlIFDXeBYAAAAAwL8iaxda+7CyskIej/uLA9Llqg6+PFntdCpQVxdcnBdUX2/+SURERERERP80BXfehdvP2oPWLrT2od1WGRyQRQX55wfkmVN5wRNtZl2Wmx8qLytVaWmJSoqLVFxUGKyo8AwRERERERH9k9W0+az9Z+1Aaw9au9Dah1V2m7xez4UDstT8cF19QC63K/hlOlWOKtnND9rM2rResmzKegmTiIiIiIiI/jlqvves/WftQGsPWrvQ2ofWeAyYrVheUtwwIP9wxRU6fviQSgoLlX8yR6dyspWXnaWTJ06YMpVjldnUcSIiIiIiIvqnqXHrmd1n7T9rB1p70NqF1j60Pu5YarbiiSPpuvV731PYTWFh+sN3vxv8g/VqZPOCpxMREREREdE/fV+6/8xWtP7uprAw/X9KobMClnNthwAAAABJRU5ErkJggg==;" vertex="1" parent="1">
          <mxGeometry x="100" y="470" width="912" height="485" as="geometry" />
        </mxCell>
        <mxCell id="Hls7dQNNYy174Wgs6hoQ-3" value="" style="rounded=0;whiteSpace=wrap;html=1;strokeColor=none;" vertex="1" parent="1">
          <mxGeometry x="122" y="620" width="866" height="290" as="geometry" />
        </mxCell>
        <mxCell id="Hls7dQNNYy174Wgs6hoQ-5" value="Chat bot" style="shape=ext;double=1;rounded=1;whiteSpace=wrap;html=1;fillColor=#dae8fc;strokeColor=#6c8ebf;fontSize=30;" vertex="1" parent="1">
          <mxGeometry x="345" y="640" width="200" height="230" as="geometry" />
        </mxCell>
        <mxCell id="Hls7dQNNYy174Wgs6hoQ-6" value="Vacation requests" style="shape=ext;double=1;rounded=1;whiteSpace=wrap;html=1;fillColor=#dae8fc;strokeColor=#6c8ebf;fontSize=30;" vertex="1" parent="1">
          <mxGeometry x="585" y="640" width="200" height="230" as="geometry" />
        </mxCell>
      </root>
    </mxGraphModel>
  </diagram>
</mxfile>
